<?xml version="1.0" encoding="iso-8859-1"?>
<!-- Generator: Adobe Illustrator 19.0.0, SVG Export Plug-In . SVG Version: 6.00 Build 0)  -->
<svg version="1.1" id="Capa_1" xmlns="http://www.w3.org/2000/svg" xmlns:xlink="http://www.w3.org/1999/xlink" x="0px" y="0px"
	 viewBox="0 0 512.001 512.001" style="enable-background:new 0 0 512.001 512.001;" xml:space="preserve">
<g>
	<g>
		<path d="M509.804,39.216l-37.02-37.02c-2.93-2.928-7.678-2.928-10.607,0l-44.082,44.082c-2.929,2.93-2.929,7.678,0,10.607
			c2.93,2.928,7.678,2.928,10.607,0l38.778-38.779l26.413,26.413l-68.02,68.019l-26.426-26.399l6.632-6.631
			c2.93-2.929,2.93-7.678,0.001-10.606c-2.929-2.928-7.678-2.93-10.606-0.001l-6.638,6.638l-0.625-0.624
			c-2.918-2.915-7.642-2.928-10.573-0.028l-96.39,95.282c-1.421,1.404-2.223,3.317-2.228,5.314s0.786,3.914,2.199,5.325l1.173,1.172
			L70.357,394.017c-2.929,2.93-2.929,7.678,0,10.607c1.464,1.464,3.384,2.196,5.303,2.196s3.839-0.732,5.303-2.196l212.043-212.042
			l26.427,26.399l-13.311,13.311c-2.93,2.929-2.93,7.678-0.001,10.606c1.465,1.465,3.384,2.197,5.304,2.197
			c1.919,0,3.839-0.732,5.303-2.196l13.318-13.317l0.625,0.624c1.464,1.463,3.382,2.194,5.301,2.194
			c1.905,0,3.812-0.722,5.272-2.166l96.389-95.281c1.421-1.404,2.223-3.317,2.228-5.314c0.005-1.997-0.786-3.914-2.199-5.325
			l-1.173-1.172l73.317-73.317C512.733,46.894,512.733,42.146,509.804,39.216z M335.999,214.327l-38.837-38.796l85.722-84.737
			l38.837,38.797L335.999,214.327z"/>
	</g>
</g>
<g>
	<g>
		<path d="M294.107,254.914c-2.93-2.928-7.678-2.928-10.607,0L72.286,466.128l-26.413-26.413l12.479-12.479
			c2.929-2.93,2.929-7.678,0-10.607c-2.929-2.928-7.678-2.928-10.606,0L29.975,434.4c-0.004,0.004-0.008,0.007-0.012,0.011
			L2.197,462.176c-0.167,0.167-0.321,0.341-0.469,0.519c-0.009,0.011-0.021,0.022-0.03,0.033c-0.627,0.764-1.078,1.623-1.357,2.524
			c-0.005,0.017-0.013,0.034-0.018,0.051c-0.061,0.201-0.11,0.405-0.153,0.61c-0.008,0.035-0.019,0.069-0.026,0.104
			c-0.039,0.198-0.066,0.398-0.089,0.599c-0.005,0.043-0.014,0.086-0.019,0.129c-0.048,0.488-0.048,0.979,0,1.467
			c0.006,0.064,0.02,0.126,0.027,0.19c0.022,0.179,0.045,0.359,0.08,0.536c0.012,0.06,0.03,0.117,0.043,0.177
			c0.04,0.18,0.081,0.359,0.135,0.536c0.014,0.047,0.034,0.093,0.049,0.14c0.06,0.185,0.123,0.37,0.198,0.551
			c0.016,0.039,0.036,0.076,0.053,0.115c0.08,0.185,0.163,0.368,0.259,0.547c0.025,0.047,0.055,0.091,0.081,0.137
			c0.093,0.166,0.187,0.33,0.293,0.49c0.065,0.098,0.139,0.189,0.208,0.284c0.076,0.103,0.146,0.208,0.228,0.308
			c0.159,0.195,0.327,0.382,0.507,0.562l37.02,37.02c0.071,0.071,0.147,0.131,0.22,0.198c0.111,0.102,0.219,0.208,0.335,0.302
			c0.156,0.128,0.319,0.244,0.483,0.358c0.037,0.026,0.071,0.055,0.109,0.08c0.186,0.124,0.377,0.236,0.571,0.342
			c0.02,0.01,0.038,0.023,0.057,0.034c0.198,0.106,0.401,0.2,0.606,0.287c0.019,0.008,0.037,0.018,0.056,0.026
			c0.196,0.081,0.396,0.15,0.597,0.214c0.032,0.01,0.063,0.023,0.095,0.033c0.188,0.057,0.378,0.101,0.569,0.143
			c0.049,0.011,0.096,0.026,0.145,0.035c0.184,0.037,0.37,0.061,0.556,0.083c0.057,0.007,0.114,0.019,0.171,0.025
			c0.244,0.024,0.488,0.036,0.732,0.036c0.004,0,0.009-0.001,0.013-0.001c0.24,0,0.479-0.012,0.718-0.035
			c0.068-0.007,0.134-0.021,0.201-0.029c0.175-0.022,0.351-0.044,0.525-0.078c0.061-0.012,0.12-0.031,0.18-0.044
			c0.179-0.04,0.357-0.081,0.533-0.134c0.047-0.014,0.093-0.034,0.139-0.049c0.186-0.06,0.37-0.123,0.552-0.198
			c0.039-0.016,0.076-0.036,0.114-0.053c0.185-0.08,0.368-0.163,0.547-0.259c0.047-0.025,0.091-0.055,0.137-0.081
			c0.166-0.093,0.331-0.188,0.491-0.294c0.085-0.056,0.164-0.121,0.246-0.181c0.116-0.084,0.233-0.164,0.345-0.256
			c0.194-0.158,0.381-0.326,0.56-0.505l27.765-27.766l216.522-216.517C297.036,262.591,297.036,257.843,294.107,254.914z
			 M44.521,493.894l-26.414-26.413l17.159-17.159l26.414,26.413L44.521,493.894z"/>
	</g>
</g>
<g>
	<g>
		<circle cx="272.331" cy="239.671" r="7.5"/>
	</g>
</g>
<g>
	<g>
		<circle cx="239.711" cy="272.291" r="7.5"/>
	</g>
</g>
<g>
	<g>
		<circle cx="207.081" cy="304.921" r="7.5"/>
	</g>
</g>
<g>
	<g>
		<circle cx="174.461" cy="337.541" r="7.5"/>
	</g>
</g>
<g>
	<g>
		<circle cx="141.831" cy="370.171" r="7.5"/>
	</g>
</g>
<g>
	<g>
		<circle cx="109.211" cy="402.791" r="7.5"/>
	</g>
</g>
<g>
	<g>
		<path d="M379.242,149.762c-0.746-5.291-3.51-9.972-7.779-13.183c-4.269-3.212-9.539-4.57-14.822-3.82
			c-5.289,0.747-9.971,3.511-13.184,7.779c-6.628,8.813-4.852,21.376,3.96,28.006c3.503,2.634,7.675,4.021,11.981,4.021
			c0.942,0,1.892-0.066,2.841-0.201c5.29-0.748,9.972-3.511,13.183-7.779C378.634,160.316,379.99,155.052,379.242,149.762z
			 M363.435,155.566c-1.655,2.202-4.796,2.648-7,0.99c-2.203-1.657-2.646-4.798-0.99-7.001c0.803-1.067,1.974-1.758,3.296-1.945
			c0.237-0.033,0.475-0.05,0.71-0.05c1.077,0,2.119,0.347,2.995,1.005c0,0,0,0,0,0.001c1.067,0.802,1.758,1.973,1.945,3.295
			C364.578,153.183,364.239,154.499,363.435,155.566z"/>
	</g>
</g>
<g>
</g>
<g>
</g>
<g>
</g>
<g>
</g>
<g>
</g>
<g>
</g>
<g>
</g>
<g>
</g>
<g>
</g>
<g>
</g>
<g>
</g>
<g>
</g>
<g>
</g>
<g>
</g>
<g>
</g>
</svg>
