<svg height="456pt" viewBox="0 0 456.61202 456" width="456pt" xmlns="http://www.w3.org/2000/svg"><path d="m120.019531 456.886719c39.359375 0 81-16.675781 113.480469-49.160157 26.472656-26.46875 45.121094-63.625 55.429688-110.4375 8.144531-36.984374 9.433593-72.746093 8.960937-97.328124l102.492187-109.601563 13.46875 13.535156c2.011719 2.046875 4.964844 2.855469 7.738282 2.125 2.773437-.730469 4.945312-2.890625 5.6875-5.660156.746094-2.769531-.050782-5.726563-2.085938-7.75l-13.875-13.941406 3.46875-3.710938 13.222656 13.292969c2.011719 2.042969 4.964844 2.855469 7.738282 2.125 2.773437-.730469 4.945312-2.890625 5.6875-5.664062.746094-2.769532-.050782-5.726563-2.085938-7.746094l-13.628906-13.703125 3.46875-3.707031 13.722656 13.789062c2.011719 2.046875 4.964844 2.855469 7.738282 2.125 2.773437-.730469 4.945312-2.890625 5.691406-5.660156.742187-2.769532-.054688-5.726563-2.089844-7.75l-14.125-14.199219 9.082031-9.714844c2.941407-3.144531 2.867188-8.054687-.171875-11.105469l-19.113281-19.207031c-3.050781-3.0625-7.980469-3.152343-11.136719-.199219l-9.761718 9.128907-14.203126-14.125c-3.128906-3.117188-8.195312-3.105469-11.3125.027343-3.117187 3.132813-3.105468 8.195313.027344 11.3125l13.789063 13.71875-3.707031 3.472657-13.699219-13.628907c-3.144531-3.042968-8.148438-2.992187-11.230469.109376-3.085938 3.097656-3.109375 8.101562-.050781 11.230468l13.289062 13.222656-3.707031 3.464844-13.945312-13.871094c-3.132813-3.117187-8.199219-3.105468-11.3125.027344-3.117188 3.132813-3.105469 8.199219.027343 11.316406l13.535157 13.464844-109.597657 102.492188c-24.582031-.472656-60.285156.816406-97.214843 8.9375-46.867188 10.296875-84.0625 28.960937-110.554688 55.453125-59.117188 59.121093-65.871094 148.566406-15.046875 199.390625 22.898437 22.898437 53.636719 34.109375 85.910156 34.109375zm238.574219-371.066407 12.441406 12.5-125 133.664063-21.128906-21.136719zm65.457031-61.210937 8.199219 8.246094-22.839844 24.425781c-.167968.140625-.335937.28125-.492187.4375-.285157.289062-.546875.597656-.78125.921875l-26.164063 27.980469-11.683594-11.730469 27.953126-26.140625c.324218-.238281.632812-.5.917968-.785156.15625-.15625.300782-.320313.441406-.484375zm-363.578125 210.089844c24.300782-24.300781 58.839844-41.5 102.675782-51.140625 27.75-6.097656 54.855468-8.179688 76.683593-8.574219l-31.902343 29.828125c-1.582032 1.480469-2.496094 3.539062-2.535157 5.707031-.035156 2.167969.808594 4.257813 2.34375 5.792969l32.832031 32.898438c1.496094 1.519531 3.527344 2.386718 5.65625 2.410156h.136719c2.179688-.042969 4.242188-.984375 5.707031-2.601563l29.828126-31.929687c-.398438 21.847656-2.476563 48.980468-8.597657 76.773437-9.636719 43.78125-26.835937 78.28125-51.113281 102.558594-29.390625 29.390625-66.933594 44.527344-102.148438 44.523437-28.148437 0-54.808593-9.675781-74.613281-29.484374-44.585937-44.582032-37.835937-123.878907 15.046875-176.761719zm0 0"/><path d="m147.339844 353.941406c21.183594-.015625 39.40625-14.988281 43.527344-35.765625 4.117187-20.777343-7.011719-41.570312-26.585938-49.664062-19.574219-8.097657-42.140625-1.238281-53.898438 16.382812-11.757812 17.617188-9.433593 41.085938 5.550782 56.058594 8.324218 8.332031 19.628906 13.007813 31.40625 12.988281zm-20.089844-64.492187c11.09375-11.097657 29.089844-11.097657 40.1875 0 11.09375 11.097656 11.09375 29.089843 0 40.1875-11.097656 11.097656-29.09375 11.097656-40.1875 0-5.351562-5.316407-8.363281-12.546875-8.363281-20.09375 0-7.542969 3.011719-14.773438 8.363281-20.09375zm0 0"/><path d="m59.414062 360.390625.007813.011719 43.023437 43.023437c8.0625 8.0625 21.136719 8.0625 29.199219 0 3.125-3.125 3.125-8.191406 0-11.316406s-8.1875-3.125-11.3125 0c-.871093.871094-2.050781 1.363281-3.285156 1.363281-1.230469 0-2.414063-.492187-3.28125-1.363281l-.300781-.300781 10.734375-10.734375c3.125-3.125 3.125-8.1875 0-11.3125l-37.0625-37.0625c-3.125-3.125-8.1875-3.125-11.3125 0l-10.746094 10.730469-.300781-.300782c-1.8125-1.8125-1.8125-4.753906 0-6.566406 3.125-3.125 3.128906-8.191406.003906-11.316406s-8.191406-3.125-11.316406 0c-8.066406 8.058594-8.066406 21.136718 0 29.199218zm22.058594-10.726563 25.75 25.75-5.082031 5.078126-25.746094-25.746094zm0 0"/></svg>