<svg id="svg" xmlns="http://www.w3.org/2000/svg" xmlns:xlink="http://www.w3.org/1999/xlink" width="400" height="555.5555555555555" viewBox="0, 0, 400,555.5555555555555"><g id="svgg"><path id="path0" d="M137.407 1.709 C 133.547 3.179,129.892 5.308,123.144 10.020 C 116.239 14.841,112.302 44.938,115.734 66.667 C 117.284 76.479,118.158 91.111,117.195 91.111 C 114.120 91.111,100.000 79.247,100.000 76.665 C 100.000 76.049,99.340 75.556,98.519 75.556 C 97.704 75.556,97.037 75.238,97.037 74.850 C 97.037 73.942,88.015 65.208,87.037 65.169 C 86.630 65.153,85.139 63.604,83.724 61.726 C 80.071 56.881,64.230 42.157,58.519 38.298 C 55.207 36.061,53.273 34.143,52.323 32.153 C 51.564 30.561,50.492 28.999,49.940 28.680 C 49.388 28.362,48.385 26.940,47.712 25.521 C 47.038 24.102,45.530 22.375,44.361 21.685 C 43.191 20.994,41.881 19.360,41.451 18.054 C 38.822 10.091,27.390 2.372,23.833 6.159 C 21.737 8.390,21.783 8.643,24.594 10.353 C 26.764 11.673,28.838 15.878,28.878 19.039 C 28.893 20.236,23.992 22.428,11.111 26.986 C 0.679 30.677,0.364 30.851,0.149 33.023 C -0.074 35.285,5.415 40.000,8.272 40.000 C 8.837 40.000,9.957 40.434,10.761 40.965 C 15.184 43.885,22.738 45.866,31.217 46.331 L 39.841 46.803 43.280 54.115 C 45.171 58.136,47.072 61.645,47.503 61.911 C 47.935 62.178,50.627 65.940,53.487 70.272 L 58.686 78.148 58.194 82.963 C 57.923 85.611,57.513 89.611,57.284 91.852 C 56.797 96.602,57.772 97.937,65.556 103.176 C 68.000 104.822,73.863 109.083,78.583 112.646 C 83.304 116.210,91.471 121.980,96.732 125.470 C 101.992 128.959,107.796 132.885,109.630 134.195 C 111.463 135.505,115.130 137.493,117.778 138.613 L 122.593 140.649 123.137 144.895 C 124.345 154.309,130.563 163.017,139.183 167.369 C 144.410 170.007,145.623 171.577,146.742 177.150 C 148.560 186.202,146.978 190.346,132.931 213.333 C 122.899 229.750,119.424 243.102,118.082 270.385 C 117.321 285.863,121.108 332.012,125.678 362.963 C 127.152 372.944,128.513 382.367,128.702 383.902 C 128.892 385.437,128.454 390.393,127.729 394.915 C 125.589 408.262,127.564 423.802,133.929 443.704 C 139.685 461.698,138.777 465.544,126.202 476.438 C 118.848 482.810,116.050 486.819,114.394 493.358 C 112.960 499.019,111.965 500.289,107.037 502.751 C 84.684 513.920,77.582 524.212,87.945 530.421 C 94.166 534.149,94.302 535.049,89.176 538.576 C 84.096 542.071,84.123 547.243,89.246 551.741 C 94.061 555.968,101.083 556.131,110.351 552.230 L 114.887 550.321 126.147 551.160 C 134.750 551.801,141.079 551.783,152.963 551.086 C 174.614 549.816,184.860 550.340,191.111 553.035 C 196.668 555.431,209.808 556.396,216.630 554.910 C 218.687 554.461,224.204 553.747,228.889 553.323 C 242.859 552.058,244.549 550.423,232.037 550.278 C 225.353 550.200,224.687 550.096,227.888 549.627 C 232.164 549.001,233.560 548.373,232.931 547.356 C 232.697 546.977,232.823 546.667,233.210 546.667 C 233.598 546.667,234.127 547.216,234.384 547.889 C 235.074 549.685,248.701 548.830,252.090 546.777 C 255.457 544.738,266.281 542.457,277.037 541.521 C 283.144 540.989,286.552 540.374,287.047 539.714 C 287.581 539.004,290.418 538.620,296.828 538.392 C 306.809 538.036,308.053 537.508,310.023 532.793 L 311.036 530.370 317.370 530.370 C 322.269 530.370,323.704 530.138,323.704 529.346 C 323.704 528.252,321.521 527.434,318.556 527.418 C 317.445 527.411,317.014 527.146,317.444 526.734 C 317.866 526.331,326.899 526.372,340.010 526.837 C 363.013 527.652,374.815 527.233,374.815 525.600 C 374.815 524.316,365.445 523.724,343.405 523.616 C 333.554 523.568,326.551 523.275,327.778 522.963 C 329.000 522.652,340.167 522.356,352.593 522.305 C 377.811 522.201,385.185 521.755,385.185 520.335 C 385.185 518.984,371.647 518.208,359.151 518.843 C 347.890 519.414,331.557 518.656,334.993 517.721 C 336.109 517.418,349.332 516.926,364.377 516.628 C 390.075 516.120,394.523 515.759,393.066 514.300 C 392.739 513.972,381.249 513.537,367.532 513.333 C 345.156 513.001,343.014 512.866,346.691 512.018 C 349.644 511.337,356.927 511.130,372.737 511.277 C 393.008 511.466,396.668 511.236,395.295 509.863 C 395.015 509.583,386.043 509.084,375.356 508.754 C 351.088 508.004,348.796 507.638,367.549 507.508 C 381.195 507.414,384.258 506.974,382.625 505.341 C 382.358 505.074,377.658 504.724,372.181 504.564 C 366.345 504.393,362.222 503.971,362.222 503.544 C 362.222 503.094,366.116 502.877,372.407 502.977 C 386.189 503.194,386.081 503.205,385.788 501.667 C 385.583 500.593,384.207 500.235,377.770 499.583 C 368.281 498.621,369.924 496.765,380.176 496.863 C 386.140 496.921,390.303 495.214,388.519 493.444 C 387.613 492.546,375.160 492.023,372.593 492.775 C 371.374 493.133,371.532 492.953,373.054 492.251 C 374.326 491.664,378.626 490.850,382.610 490.443 C 386.594 490.035,390.174 489.381,390.566 488.989 C 391.971 487.584,390.210 486.666,386.067 486.644 C 380.867 486.616,382.341 485.345,388.329 484.692 C 390.470 484.459,392.972 483.800,393.889 483.228 C 395.762 482.059,396.154 479.259,394.444 479.259 C 393.833 479.259,393.333 479.631,393.333 480.086 C 393.333 480.621,392.613 480.730,391.296 480.394 C 390.176 480.108,388.283 479.893,387.090 479.918 C 385.896 479.942,384.481 479.597,383.946 479.153 C 383.410 478.708,382.053 478.556,380.930 478.815 C 379.807 479.074,374.389 479.587,368.889 479.956 C 358.247 480.669,356.296 481.078,356.296 482.593 C 356.296 484.142,358.196 484.445,365.404 484.045 C 370.865 483.742,371.854 483.834,370.370 484.508 C 369.352 484.970,363.185 485.629,356.667 485.970 C 350.148 486.312,344.565 486.608,344.259 486.629 C 343.954 486.650,343.704 487.120,343.704 487.675 C 343.704 488.819,348.650 489.596,356.296 489.652 L 361.111 489.688 358.619 490.770 C 356.735 491.588,352.837 491.852,342.649 491.852 C 332.517 491.852,328.833 492.100,327.807 492.850 C 325.523 494.520,327.551 494.962,339.430 495.383 C 350.143 495.763,350.491 495.824,348.435 496.963 C 346.727 497.909,343.061 498.223,330.246 498.519 C 321.419 498.722,313.946 499.139,313.641 499.444 C 312.488 500.599,314.363 501.049,322.256 501.515 C 335.307 502.284,332.683 503.212,318.889 502.706 C 300.673 502.037,298.673 504.734,316.539 505.874 L 325.556 506.449 315.556 506.478 C 310.056 506.493,303.598 506.292,301.206 506.031 L 296.856 505.556 294.539 500.763 C 293.132 497.853,291.436 495.526,290.220 494.837 C 287.686 493.403,281.270 486.147,274.860 477.469 C 268.306 468.597,263.493 464.399,255.086 460.226 C 246.485 455.956,246.462 457.552,255.454 435.380 C 266.083 409.171,266.159 402.097,256.080 377.037 C 253.049 369.500,249.121 359.167,247.352 354.074 L 244.135 344.815 243.613 320.000 C 242.836 283.085,240.391 265.888,232.836 244.182 C 228.379 231.377,212.749 203.377,207.748 199.238 C 202.841 195.176,202.822 190.004,207.672 178.595 C 209.854 173.460,211.906 168.593,212.232 167.778 C 212.559 166.963,213.023 163.488,213.265 160.055 L 213.704 153.814 221.019 160.613 C 225.043 164.352,229.332 168.994,230.550 170.928 C 233.750 176.007,259.177 201.021,272.593 212.290 C 296.412 232.296,296.599 232.310,297.887 214.185 C 298.282 208.624,298.836 202.241,299.118 200.000 L 299.630 195.926 305.917 208.041 C 313.333 222.331,313.993 223.006,326.555 229.161 C 344.701 238.052,348.445 235.862,340.315 221.111 C 337.621 216.222,334.098 209.828,332.486 206.902 C 330.874 203.976,329.277 200.612,328.937 199.426 L 328.319 197.270 333.820 197.624 C 338.810 197.944,339.492 197.817,341.143 196.267 C 344.868 192.767,343.417 191.365,331.852 187.283 C 328.389 186.061,323.835 184.103,321.733 182.932 C 317.724 180.699,308.093 176.569,300.095 173.653 C 297.499 172.706,292.499 170.280,288.984 168.262 C 285.469 166.243,278.926 162.678,274.444 160.340 C 262.713 154.220,248.821 144.307,239.259 135.235 C 237.019 133.108,234.311 130.831,233.242 130.173 C 232.173 129.516,229.340 127.260,226.946 125.160 C 215.508 115.129,205.345 110.080,194.303 108.942 C 181.723 107.646,180.798 106.805,183.293 98.942 C 187.437 85.885,188.496 77.376,187.145 67.984 C 185.625 57.418,185.581 58.173,187.778 57.172 C 190.583 55.893,190.216 53.510,187.124 52.930 C 184.754 52.486,184.590 52.254,184.116 48.676 C 183.402 43.297,181.163 37.356,178.121 32.775 C 176.185 29.859,175.002 26.707,173.604 20.734 C 171.443 11.501,168.500 6.436,163.082 2.624 C 158.602 -0.528,144.595 -1.027,137.407 1.709 M155.556 3.640 C 157.035 4.063,156.538 4.274,153.084 4.691 C 144.092 5.777,142.963 7.314,142.963 18.470 C 142.963 26.581,142.579 27.770,140.691 25.496 C 140.109 24.795,139.009 24.461,137.947 24.664 C 136.971 24.851,134.620 24.536,132.720 23.964 C 129.046 22.858,124.918 23.271,125.393 24.697 C 125.550 25.169,126.317 25.652,127.098 25.771 C 133.217 26.699,138.519 29.133,138.529 31.019 C 138.552 35.503,140.789 38.223,141.954 35.185 C 142.214 34.509,143.335 34.074,144.817 34.074 C 147.176 34.074,151.852 30.118,151.852 28.122 C 151.852 27.001,158.812 27.286,160.414 28.473 C 161.826 29.519,161.826 29.557,160.442 30.583 C 158.525 32.004,159.555 33.333,162.575 33.333 C 165.349 33.333,166.031 32.340,165.058 29.712 C 162.784 23.570,173.794 30.050,177.366 36.956 C 179.020 40.156,178.968 40.198,174.074 39.630 C 170.389 39.202,169.630 39.303,169.630 40.224 C 169.630 41.779,174.639 44.568,176.946 44.298 C 179.763 43.969,179.883 46.310,177.195 49.152 C 172.995 53.593,172.291 57.704,174.473 65.051 C 175.626 68.932,176.476 69.714,177.556 67.886 C 177.882 67.334,178.898 66.489,179.815 66.008 C 180.886 65.446,181.503 64.415,181.542 63.122 L 181.602 61.111 182.662 63.536 C 185.406 69.813,183.975 90.808,180.322 97.872 C 178.603 101.196,170.190 101.706,163.461 98.895 C 160.225 97.542,158.288 97.458,158.698 98.687 C 159.239 100.310,169.739 104.399,173.428 104.423 C 178.153 104.453,178.797 105.452,178.343 112.045 C 177.412 125.543,173.518 127.647,164.489 119.529 C 159.276 114.842,148.889 96.404,148.889 91.838 C 148.889 90.768,147.898 88.584,146.687 86.984 C 144.122 83.593,144.040 83.156,145.645 81.382 C 147.583 79.241,146.420 77.778,142.781 77.778 C 137.444 77.778,135.089 75.291,134.099 68.609 C 133.789 66.522,133.283 64.148,132.973 63.333 L 132.410 61.852 133.507 63.333 C 134.111 64.148,134.843 66.148,135.135 67.778 C 136.221 73.845,139.259 76.159,139.259 70.919 C 139.259 68.566,139.636 67.529,140.741 66.839 C 142.851 65.520,142.646 63.098,140.375 62.528 C 137.929 61.914,138.645 60.963,142.293 59.981 C 145.706 59.062,151.111 54.089,151.111 51.867 C 151.111 50.914,152.100 49.896,153.938 48.958 C 159.725 46.006,159.984 42.364,154.244 44.660 C 152.655 45.296,149.216 46.192,146.603 46.650 C 137.685 48.216,135.791 50.370,143.333 50.370 C 145.574 50.370,147.407 50.581,147.407 50.838 C 147.407 52.756,144.015 56.259,141.068 57.384 C 136.814 59.009,135.945 58.238,139.074 55.615 C 142.400 52.825,142.159 51.852,138.142 51.852 C 135.088 51.852,134.875 51.736,135.651 50.493 C 137.017 48.306,133.859 45.185,130.281 45.185 C 126.472 45.185,126.060 46.359,129.216 48.221 C 132.171 49.964,132.245 50.159,130.717 52.179 C 129.006 54.441,129.287 56.505,131.223 55.890 C 132.394 55.519,132.717 55.653,132.439 56.396 C 132.231 56.952,131.635 58.741,131.113 60.370 C 130.592 62.000,129.836 64.056,129.434 64.940 C 128.938 66.030,128.971 67.318,129.536 68.940 C 129.995 70.256,130.370 71.418,130.370 71.523 C 130.370 71.627,129.704 71.539,128.889 71.326 C 126.666 70.744,126.971 73.542,129.444 76.417 C 133.842 81.530,139.076 86.667,139.887 86.667 C 141.244 86.667,140.882 85.060,139.096 83.159 L 137.451 81.408 139.281 82.080 C 140.534 82.541,141.190 83.420,141.361 84.870 C 141.498 86.035,142.214 87.411,142.951 87.927 C 143.688 88.443,144.700 90.621,145.199 92.766 C 145.698 94.911,146.739 97.716,147.511 98.998 L 148.916 101.330 145.952 100.664 C 144.322 100.298,141.733 99.497,140.198 98.885 C 138.663 98.273,135.074 97.291,132.222 96.704 C 126.552 95.537,121.481 91.330,121.481 87.793 C 121.481 86.888,121.113 85.090,120.663 83.799 C 120.103 82.193,120.084 81.162,120.602 80.538 C 121.363 79.621,120.564 68.919,119.620 67.392 C 119.374 66.993,119.702 66.667,120.350 66.667 C 122.544 66.667,122.422 64.497,120.078 61.828 C 117.901 59.348,117.778 58.881,117.789 53.122 C 117.803 45.476,118.085 45.026,122.666 45.322 C 126.792 45.588,127.713 44.094,124.444 42.440 C 122.674 41.544,122.664 41.503,124.216 41.492 C 125.108 41.486,126.045 41.815,126.296 42.222 C 127.007 43.371,129.630 43.095,129.630 41.871 C 129.630 40.339,125.774 38.518,121.442 38.005 C 117.326 37.518,117.389 37.691,118.919 31.111 C 121.105 21.711,121.239 21.481,124.502 21.481 C 127.784 21.481,128.189 20.508,125.741 18.501 L 124.074 17.135 127.732 13.400 C 132.070 8.972,135.636 7.090,138.576 7.678 C 139.925 7.948,141.075 7.708,141.770 7.013 C 142.368 6.415,143.714 5.926,144.762 5.926 C 146.833 5.926,147.168 5.242,145.778 3.852 C 144.769 2.843,152.204 2.682,155.556 3.640 M159.371 8.208 C 160.969 9.063,163.001 13.168,162.904 15.347 C 162.866 16.207,162.587 15.958,162.102 14.630 C 161.104 11.898,159.259 11.959,159.259 14.724 C 159.259 15.896,158.759 17.271,158.148 17.778 C 157.537 18.285,157.037 19.492,157.037 20.461 C 157.037 22.293,156.008 22.813,155.145 21.417 C 154.872 20.974,154.019 20.776,153.250 20.977 C 152.369 21.208,151.852 20.957,151.852 20.301 C 151.852 19.728,151.352 19.259,150.741 19.259 C 150.049 19.259,149.630 19.959,149.630 21.111 C 149.630 22.469,149.235 22.963,148.148 22.963 C 147.264 22.963,146.632 23.486,146.580 24.259 C 146.532 24.972,146.199 23.889,145.839 21.852 C 144.147 12.249,152.044 4.286,159.371 8.208 M33.693 13.510 C 35.184 15.246,37.609 19.167,39.081 22.222 C 40.553 25.278,43.290 29.444,45.163 31.481 C 47.037 33.519,49.863 36.852,51.444 38.889 C 53.025 40.926,55.405 43.759,56.733 45.185 L 59.147 47.778 58.474 56.618 C 58.104 61.480,57.487 65.772,57.104 66.156 C 56.332 66.927,51.373 59.601,46.838 50.989 C 42.987 43.677,38.763 41.600,27.407 41.435 C 22.362 41.361,22.257 41.166,26.852 40.397 C 31.279 39.657,30.508 37.793,25.741 37.711 C 22.060 37.648,21.981 37.607,24.259 36.949 C 27.339 36.060,27.491 34.074,24.479 34.074 C 19.879 34.074,16.386 37.264,20.185 37.996 C 21.102 38.172,20.185 38.323,18.148 38.332 C 16.111 38.340,15.028 38.194,15.741 38.008 C 19.132 37.122,16.881 35.841,12.407 36.112 C 7.053 36.436,7.745 35.163,13.333 34.408 C 18.326 33.734,24.444 31.907,24.444 31.090 C 24.444 29.693,19.485 30.007,11.481 31.912 C -0.272 34.710,2.674 33.007,16.664 28.916 C 28.361 25.496,30.508 25.291,31.947 27.456 C 32.659 28.528,33.376 28.827,34.345 28.455 C 35.981 27.826,35.601 22.422,33.718 19.548 C 32.904 18.305,32.856 17.813,33.529 17.589 C 35.068 17.076,32.962 13.621,30.426 12.498 C 29.106 11.914,28.148 10.932,28.148 10.163 C 28.148 8.260,30.296 9.556,33.693 13.510 M154.815 10.741 C 155.812 11.942,158.519 12.271,158.519 11.190 C 158.519 10.435,156.720 9.630,155.034 9.630 C 154.103 9.630,154.063 9.835,154.815 10.741 M168.034 18.803 L 168.624 23.704 166.569 23.704 C 164.083 23.704,160.741 22.276,160.741 21.214 C 160.741 20.748,161.091 20.794,161.630 21.333 C 163.785 23.488,168.050 21.796,166.018 19.593 C 165.661 19.206,165.187 16.742,164.964 14.117 L 164.559 9.346 166.002 11.624 C 166.795 12.877,167.710 16.108,168.034 18.803 M124.918 27.921 C 123.909 28.930,124.428 33.333,125.556 33.333 C 126.328 33.333,126.667 32.556,126.667 30.784 C 126.667 28.292,125.863 26.976,124.918 27.921 M163.889 41.981 C 160.651 43.867,159.859 45.634,161.902 46.418 C 163.559 47.054,166.614 45.214,167.841 42.841 C 169.657 39.328,168.774 39.137,163.889 41.981 M80.001 64.845 C 107.243 91.069,116.476 97.382,133.526 101.447 C 149.389 105.228,148.901 104.734,154.464 122.654 C 159.481 138.817,160.818 140.602,166.338 138.503 C 168.050 137.852,168.266 137.440,167.888 135.549 C 167.310 132.663,170.153 131.707,173.476 133.670 C 175.472 134.849,175.762 134.858,176.959 133.774 C 178.738 132.164,181.637 132.290,183.906 134.074 C 187.485 136.890,188.146 135.873,188.153 127.532 C 188.156 124.408,188.365 119.666,188.618 116.994 L 189.077 112.136 195.019 113.081 C 208.805 115.275,212.914 117.747,233.067 135.968 C 236.697 139.250,242.159 143.540,245.204 145.500 C 248.249 147.461,252.407 150.465,254.444 152.176 C 259.636 156.536,263.634 159.112,272.593 163.868 C 276.870 166.139,284.013 170.190,288.466 172.870 C 292.918 175.550,296.848 177.838,297.198 177.955 C 297.549 178.072,297.309 179.662,296.664 181.488 C 295.919 183.600,295.291 189.059,294.939 196.482 C 294.360 208.697,293.867 210.320,290.579 210.857 C 285.325 211.716,284.444 212.083,284.444 213.417 C 284.444 216.286,279.015 212.851,269.876 204.200 C 261.218 196.004,239.289 169.206,235.556 162.258 C 234.944 161.120,233.567 159.685,232.494 159.068 C 231.056 158.241,230.622 157.486,230.841 156.195 C 231.159 154.325,228.632 150.380,227.708 151.304 C 227.410 151.602,227.547 152.680,228.012 153.701 C 229.414 156.778,228.606 155.875,223.464 148.622 C 220.761 144.808,218.034 141.261,217.405 140.739 C 215.929 139.514,214.999 140.430,216.051 142.071 C 216.497 142.765,218.720 146.333,220.992 150.000 C 231.528 167.006,231.871 167.652,229.962 166.920 C 229.372 166.694,228.889 166.281,228.889 166.004 C 228.889 165.727,226.205 162.512,222.926 158.861 C 213.062 147.880,210.488 140.977,211.402 127.963 C 211.858 121.472,211.165 120.724,208.867 125.228 C 206.939 129.008,206.798 137.848,208.538 145.926 C 211.838 161.245,207.268 177.119,198.148 182.016 C 195.704 183.329,193.370 184.386,192.963 184.365 C 192.556 184.344,192.639 184.159,193.148 183.954 C 194.647 183.349,194.207 181.481,192.567 181.481 C 191.737 181.481,190.209 182.038,189.170 182.719 C 187.632 183.727,187.168 183.774,186.672 182.971 C 186.169 182.159,185.657 182.154,183.748 182.944 C 180.322 184.364,180.291 183.458,183.689 181.209 C 186.302 179.479,187.713 177.037,186.098 177.037 C 185.235 177.037,179.915 180.681,177.407 182.990 C 175.911 184.368,174.177 185.126,172.099 185.310 C 168.391 185.638,168.573 185.088,172.860 183.013 C 176.681 181.163,182.066 176.664,181.344 175.924 C 181.064 175.638,178.898 176.303,176.529 177.403 C 168.138 181.300,166.790 181.618,166.527 179.766 C 166.371 178.672,165.697 178.077,164.444 177.929 C 161.612 177.593,158.669 176.275,158.237 175.149 C 158.023 174.593,156.574 173.333,155.017 172.350 C 147.009 167.294,133.427 142.813,131.523 130.000 C 130.516 123.223,128.148 122.734,128.148 129.303 C 128.148 134.491,127.877 134.431,120.179 127.523 C 114.185 122.144,111.853 119.735,106.500 113.393 C 104.558 111.092,102.963 110.875,102.963 112.912 C 102.963 113.447,104.630 115.970,106.667 118.519 C 110.738 123.611,111.102 124.497,108.889 123.918 C 108.074 123.705,107.407 123.892,107.407 124.334 C 107.407 125.827,91.321 116.941,85.083 112.003 C 81.676 109.305,77.633 106.418,76.098 105.586 C 64.839 99.485,61.708 95.171,62.911 87.415 C 63.347 84.607,63.704 74.888,63.704 65.819 L 63.704 49.329 66.481 51.917 C 68.009 53.341,74.093 59.158,80.001 64.845 M125.510 50.606 C 124.944 52.066,125.517 59.479,126.292 60.734 C 127.319 62.395,128.148 60.455,128.148 56.394 C 128.148 51.678,126.498 48.057,125.510 50.606 M159.522 53.664 C 156.624 54.925,151.111 59.834,151.111 61.154 C 151.111 62.664,152.400 63.118,154.104 62.206 C 155.620 61.395,155.626 61.419,154.436 63.720 C 152.398 67.662,154.670 69.775,157.694 66.751 C 159.063 65.382,159.129 65.392,160.993 67.256 C 163.451 69.714,165.881 68.787,167.696 64.699 C 168.392 63.133,169.272 61.282,169.654 60.585 C 170.631 58.797,169.757 57.039,167.884 57.026 C 165.466 57.008,163.796 55.734,165.095 54.898 C 168.088 52.969,163.470 51.947,159.522 53.664 M181.481 59.709 C 181.481 60.490,181.079 60.745,180.310 60.450 C 179.665 60.202,178.749 59.995,178.273 59.989 C 177.118 59.974,179.354 58.545,180.556 58.530 C 181.065 58.524,181.481 59.054,181.481 59.709 M122.963 62.663 C 122.963 64.397,125.352 68.148,126.456 68.148 C 127.621 68.148,127.662 66.877,126.594 63.814 C 125.731 61.338,122.963 60.461,122.963 62.663 M176.111 73.664 C 173.525 76.905,173.545 77.778,176.206 77.778 C 178.850 77.778,180.180 76.268,179.868 73.620 C 179.527 70.727,178.445 70.740,176.111 73.664 M126.667 77.435 C 126.667 79.522,135.417 87.844,136.479 86.768 C 137.225 86.012,136.963 85.427,135.143 83.793 C 133.898 82.674,131.942 80.530,130.796 79.027 C 128.644 76.205,126.667 75.443,126.667 77.435 M176.296 81.266 C 171.835 81.830,168.889 83.047,168.889 84.326 C 168.889 85.043,168.511 86.007,168.050 86.469 C 166.903 87.616,167.797 89.630,169.453 89.630 C 170.339 89.630,171.049 90.460,171.513 92.037 C 172.951 96.920,178.029 95.007,179.322 89.095 C 179.658 87.556,180.148 85.409,180.411 84.325 C 180.961 82.054,179.378 80.877,176.296 81.266 M63.704 86.922 C 63.704 88.108,66.051 90.370,67.281 90.370 C 68.597 90.370,68.318 88.532,66.794 87.152 C 65.156 85.670,63.704 85.562,63.704 86.922 M126.667 87.449 C 126.667 88.480,131.073 92.481,132.818 93.034 C 135.179 93.784,135.277 92.540,132.987 90.873 C 131.779 89.993,130.289 88.687,129.676 87.970 C 128.444 86.532,126.667 86.224,126.667 87.449 M133.333 88.501 C 133.333 89.747,136.836 92.299,137.557 91.579 C 138.080 91.056,134.920 87.407,133.945 87.407 C 133.609 87.407,133.333 87.900,133.333 88.501 M95.556 98.404 C 95.556 100.000,96.510 101.481,97.538 101.481 C 99.095 101.481,98.468 98.224,96.852 97.916 C 96.139 97.780,95.556 98.000,95.556 98.404 M98.519 104.072 C 98.519 105.916,100.973 110.370,101.989 110.370 C 103.214 110.370,103.209 110.275,101.794 106.739 C 100.614 103.789,98.519 102.083,98.519 104.072 M157.607 116.481 C 159.625 119.028,163.308 122.611,165.793 124.444 C 171.255 128.475,171.198 128.053,166.627 130.620 C 161.757 133.355,161.334 133.099,158.681 125.799 C 157.448 122.406,155.746 117.880,154.897 115.741 C 152.937 110.799,153.151 110.857,157.607 116.481 M185.453 121.586 C 185.330 131.444,184.925 132.039,180.840 128.358 L 177.731 125.556 179.268 121.574 C 184.023 109.259,185.607 109.262,185.453 121.586 M128.741 143.111 C 129.230 143.600,129.630 144.393,129.630 144.873 C 129.630 146.006,134.168 153.802,136.494 156.667 C 139.755 160.682,140.302 162.222,138.464 162.222 C 136.845 162.222,130.477 156.022,130.286 154.259 C 130.161 153.112,130.078 152.730,129.402 150.185 C 129.104 149.065,128.531 148.148,128.128 148.148 C 127.701 148.148,127.771 147.546,128.294 146.708 C 129.038 145.518,128.955 145.004,127.815 143.745 C 126.369 142.147,127.204 141.574,128.741 143.111 M247.963 155.615 C 246.364 156.546,246.290 159.133,247.801 161.290 C 248.736 162.624,248.770 163.173,247.999 164.408 C 247.185 165.711,247.518 166.821,250.558 172.942 C 252.480 176.811,254.262 181.282,254.517 182.878 C 254.871 185.095,256.228 187.167,260.268 191.663 C 263.176 194.899,265.938 198.182,266.405 198.958 C 267.088 200.094,267.443 200.189,268.218 199.446 C 269.004 198.692,268.628 197.734,266.182 194.261 C 260.127 185.664,252.963 170.403,253.129 166.454 C 253.241 163.781,252.920 162.549,251.824 161.454 C 249.975 159.605,249.983 158.376,251.852 157.209 C 255.008 155.238,251.253 153.699,247.963 155.615 M159.259 180.652 L 163.333 181.327 157.778 181.219 C 152.140 181.110,151.143 180.674,151.122 178.311 C 151.112 177.090,151.261 177.103,153.148 178.485 C 154.269 179.306,157.019 180.281,159.259 180.652 M317.564 185.457 C 322.535 187.757,329.533 190.603,333.116 191.781 L 339.630 193.922 327.593 193.514 C 316.935 193.152,315.556 193.239,315.556 194.277 C 315.556 196.118,317.577 197.680,320.579 198.159 C 324.212 198.738,325.378 199.415,326.432 201.555 C 335.737 220.446,337.680 225.162,335.145 222.699 C 333.741 221.336,332.593 219.888,332.593 219.481 C 332.593 218.403,323.727 206.667,322.913 206.667 C 321.645 206.667,322.201 208.565,324.551 212.262 C 325.832 214.277,327.180 217.007,327.547 218.328 C 328.004 219.970,328.790 220.874,330.033 221.186 C 331.574 221.572,331.852 222.082,331.852 224.525 C 331.852 227.954,331.580 228.033,328.962 225.370 C 325.422 221.770,317.902 215.556,317.087 215.556 C 314.868 215.556,317.140 219.039,321.586 222.452 C 324.015 224.317,321.762 223.151,317.956 220.575 C 315.430 218.864,314.134 217.081,311.450 211.626 C 309.607 207.880,306.940 202.815,305.522 200.370 C 300.568 191.827,299.641 184.735,303.061 181.549 C 304.956 179.783,305.791 180.008,317.564 185.457 M198.145 185.190 C 197.891 185.601,196.622 186.476,195.323 187.137 C 192.640 188.501,193.061 187.814,196.105 185.862 C 198.561 184.288,198.739 184.229,198.145 185.190 M189.568 190.563 C 189.398 190.670,188.581 191.323,187.751 192.016 C 186.319 193.212,186.243 193.203,186.243 191.823 C 186.243 190.775,186.749 190.370,188.060 190.370 C 189.059 190.370,189.738 190.457,189.568 190.563 M154.770 192.276 C 154.238 192.917,152.524 194.094,150.961 194.891 C 148.494 196.150,148.223 196.533,148.901 197.800 C 150.036 199.921,151.955 199.601,155.636 196.674 C 160.023 193.187,161.201 193.400,157.105 196.941 C 153.800 199.798,153.452 202.011,156.430 201.232 C 158.483 200.695,162.222 202.154,162.222 203.492 C 162.222 204.253,162.702 204.492,163.704 204.230 C 166.127 203.596,165.412 204.857,161.481 208.148 C 158.248 210.855,156.722 213.333,158.287 213.333 C 158.567 213.333,160.817 211.775,163.287 209.870 C 170.134 204.589,170.148 204.580,168.674 206.667 C 167.954 207.685,166.838 209.679,166.194 211.097 C 165.549 212.516,162.224 216.349,158.803 219.616 C 151.510 226.581,151.153 227.556,156.111 226.947 C 160.334 226.427,164.539 223.723,173.333 215.872 C 176.796 212.780,180.693 209.420,181.993 208.404 L 184.357 206.558 191.252 210.910 C 204.943 219.551,203.451 217.818,204.489 226.281 C 205.764 236.675,204.721 269.446,202.540 287.520 C 202.114 291.053,202.224 291.747,203.244 291.965 C 204.320 292.194,204.277 292.577,202.854 295.442 C 201.619 297.931,201.468 298.793,202.190 299.239 C 204.978 300.963,195.264 333.312,187.086 349.537 C 184.495 354.678,184.299 357.389,186.622 355.954 C 188.916 354.536,199.381 329.911,201.100 321.883 C 201.628 319.422,202.758 314.777,203.613 311.562 C 206.910 299.158,210.822 265.926,208.984 265.926 C 208.441 265.926,208.187 264.307,208.259 261.296 C 208.320 258.750,208.509 257.583,208.679 258.704 C 208.848 259.824,209.298 260.741,209.679 260.741 C 210.549 260.741,210.600 250.582,209.732 250.247 C 209.380 250.111,208.934 245.333,208.739 239.630 C 208.368 228.755,209.115 229.564,210.310 241.331 C 211.077 248.883,212.996 250.792,213.440 244.444 C 213.511 243.426,213.802 246.093,214.086 250.370 C 214.371 254.648,214.874 258.786,215.205 259.566 C 215.605 260.508,215.543 260.820,215.018 260.496 C 213.971 259.849,213.333 261.671,213.333 265.307 C 213.333 269.041,214.885 268.812,215.800 264.943 C 216.154 263.447,216.793 262.222,217.220 262.222 C 217.738 262.222,217.853 259.816,217.566 255.000 C 217.033 246.050,218.122 248.929,219.292 259.561 C 220.209 267.893,219.692 274.074,218.079 274.074 C 216.924 274.074,216.665 280.129,217.517 287.222 C 218.177 292.719,219.259 292.052,219.259 286.148 C 219.259 282.367,219.465 281.391,220.123 282.049 C 220.779 282.705,220.790 287.248,220.169 300.901 C 219.324 319.472,218.862 322.162,214.510 333.885 C 213.033 337.865,209.768 355.437,209.203 362.450 C 208.966 365.380,208.478 368.444,208.118 369.259 C 207.757 370.074,205.643 375.574,203.421 381.481 C 198.008 395.866,193.977 405.407,189.685 413.987 C 185.204 422.948,184.711 424.444,186.246 424.444 C 186.885 424.444,187.407 424.980,187.407 425.635 C 187.407 426.362,187.819 426.667,188.465 426.419 C 189.321 426.091,189.387 426.402,188.812 428.051 C 187.652 431.377,183.398 437.407,182.212 437.407 C 180.655 437.407,180.408 434.322,181.795 432.205 C 183.524 429.567,183.243 428.889,180.420 428.889 C 178.207 428.889,177.840 429.154,177.595 430.926 C 177.319 432.921,177.286 432.901,175.990 430.000 C 175.263 428.370,174.240 426.537,173.718 425.926 C 173.195 425.315,172.551 423.981,172.286 422.963 C 171.960 421.707,172.295 422.006,173.327 423.889 C 175.164 427.240,177.246 427.750,176.347 424.630 C 176.024 423.509,173.856 418.800,171.530 414.165 C 168.848 408.821,167.018 404.077,166.529 401.202 C 166.013 398.168,164.337 393.969,161.464 388.519 C 159.103 384.037,156.283 377.370,155.198 373.704 C 154.113 370.037,152.226 364.204,151.004 360.741 C 147.233 350.052,142.702 325.682,139.288 297.715 C 138.406 290.493,136.584 283.704,135.527 283.704 C 134.519 283.704,134.644 287.608,135.859 294.074 C 137.468 302.632,138.800 321.017,137.835 321.339 C 136.840 321.671,136.775 323.704,137.759 323.704 C 138.156 323.704,138.299 324.620,138.077 325.741 C 137.103 330.645,141.156 348.584,143.199 348.416 C 143.884 348.359,144.444 348.609,144.444 348.971 C 144.444 349.333,144.111 349.630,143.704 349.630 C 142.682 349.630,142.776 352.247,144.014 358.242 C 144.592 361.042,145.461 365.333,145.945 367.778 C 146.430 370.222,148.250 376.722,149.991 382.222 C 151.731 387.722,153.393 393.889,153.684 395.926 C 154.146 399.162,171.109 452.273,172.291 454.186 C 172.689 454.829,170.131 459.015,166.026 464.444 C 165.255 465.463,163.015 468.780,161.046 471.815 C 155.104 480.977,151.033 485.367,145.980 488.060 C 140.689 490.880,140.376 490.802,141.390 486.927 C 142.638 482.159,143.262 473.333,142.351 473.333 C 141.910 473.333,141.358 474.583,141.126 476.111 C 139.946 483.862,134.949 496.756,132.814 497.554 C 132.081 497.828,129.964 499.657,128.110 501.619 C 122.941 507.088,120.030 505.819,118.454 497.407 C 117.426 491.922,118.185 490.571,127.471 481.345 C 135.254 473.614,136.561 471.930,139.719 465.568 L 143.255 458.445 141.926 454.963 C 130.721 425.603,127.300 400.581,132.988 389.582 C 134.587 386.488,134.306 378.754,132.208 368.148 C 131.200 363.056,130.375 358.806,130.373 358.704 C 130.356 357.555,128.865 358.956,128.796 360.185 C 128.745 361.102,128.463 360.360,128.169 358.537 C 127.824 356.399,127.927 354.930,128.461 354.397 C 129.069 353.788,129.035 349.403,128.331 337.790 C 127.486 323.838,127.506 321.812,128.503 320.291 C 129.891 318.172,129.908 317.778,128.614 317.778 C 127.923 317.778,127.438 316.359,127.096 313.333 C 126.199 305.405,125.189 308.477,125.087 319.444 L 124.989 330.000 124.031 320.741 C 123.107 311.807,122.777 302.703,123.474 305.370 C 123.660 306.083,124.288 306.667,124.869 306.667 C 126.120 306.667,126.201 305.095,125.146 301.296 C 124.722 299.769,123.922 298.519,123.368 298.519 C 122.553 298.519,122.518 298.007,123.183 295.841 C 123.882 293.562,123.817 293.026,122.743 292.241 C 121.160 291.083,121.153 290.403,122.716 289.261 C 124.521 287.941,124.421 281.616,122.574 280.266 C 121.818 279.712,121.584 279.259,122.056 279.259 C 122.673 279.259,122.902 275.778,122.873 266.852 C 122.816 249.364,126.281 232.543,131.749 223.764 C 132.912 221.897,135.265 217.704,136.978 214.444 C 145.664 197.922,149.748 191.942,152.553 191.642 C 154.001 191.487,155.309 191.304,155.461 191.236 C 155.613 191.167,155.302 191.635,154.770 192.276 M199.110 202.258 C 200.027 203.726,198.787 203.267,195.617 200.965 C 195.448 200.842,195.951 200.741,196.735 200.741 C 197.520 200.741,198.589 201.424,199.110 202.258 M204.054 205.063 C 204.583 206.789,204.581 206.790,202.561 205.467 C 201.449 204.738,200.917 204.015,201.380 203.861 C 201.843 203.707,202.232 203.025,202.245 202.346 C 202.272 200.850,203.182 202.216,204.054 205.063 M272.266 202.152 C 271.749 202.989,274.351 205.926,275.610 205.926 C 276.910 205.926,276.051 203.593,274.330 202.452 C 273.296 201.767,272.569 201.661,272.266 202.152 M146.893 206.233 C 145.750 207.217,145.084 208.292,145.412 208.621 C 146.255 209.465,149.940 207.245,150.234 205.715 C 150.576 203.939,149.335 204.132,146.893 206.233 M178.352 206.538 C 178.702 207.586,173.157 212.764,172.617 211.895 C 172.400 211.546,171.389 211.130,170.370 210.969 C 168.546 210.683,168.565 210.633,171.671 207.587 C 174.818 204.501,177.531 204.075,178.352 206.538 M197.950 205.902 C 199.279 206.948,199.707 207.866,199.462 209.149 C 199.274 210.133,199.484 211.163,199.930 211.438 C 202.808 213.217,200.008 212.863,196.954 211.062 C 187.798 205.663,185.431 203.033,193.333 207.037 C 197.560 209.179,198.519 209.316,198.519 207.778 C 198.519 207.167,198.059 206.667,197.498 206.667 C 196.937 206.667,196.063 206.167,195.556 205.556 C 194.234 203.963,195.766 204.185,197.950 205.902 M159.074 206.216 C 157.441 207.456,157.385 209.075,158.986 208.758 C 160.628 208.432,162.831 205.175,161.387 205.209 C 160.828 205.222,159.787 205.675,159.074 206.216 M153.318 210.759 C 152.803 211.380,152.612 212.118,152.893 212.399 C 153.511 213.017,155.723 211.721,156.129 210.503 C 156.551 209.237,154.421 209.431,153.318 210.759 M207.675 211.481 C 207.194 212.734,206.224 212.933,205.590 211.908 C 205.357 211.531,205.754 211.070,206.472 210.883 C 207.190 210.695,207.851 210.504,207.940 210.456 C 208.029 210.409,207.910 210.870,207.675 211.481 M320.741 213.926 C 320.741 215.486,322.107 217.037,323.481 217.037 C 324.806 217.037,324.691 215.167,323.280 213.757 C 321.740 212.216,320.741 212.283,320.741 213.926 M147.947 215.609 C 145.351 217.749,144.302 220.000,145.901 220.000 C 146.833 220.000,151.852 214.981,151.852 214.049 C 151.852 212.830,150.816 213.244,147.947 215.609 M292.949 222.150 C 292.542 223.206,292.415 223.194,291.765 222.037 C 291.365 221.324,290.595 220.741,290.054 220.741 C 288.494 220.741,287.240 218.730,287.766 217.073 C 288.031 216.238,288.873 215.556,289.636 215.556 C 290.399 215.556,291.284 215.139,291.602 214.630 C 292.330 213.462,293.589 220.489,292.949 222.150 M140.046 216.250 C 138.428 217.868,138.025 220.348,139.256 221.109 C 140.241 221.718,143.816 217.797,143.546 216.405 C 143.208 214.660,141.702 214.594,140.046 216.250 M149.983 217.872 C 146.677 220.920,145.754 222.963,147.683 222.963 C 148.822 222.963,154.815 216.752,154.815 215.572 C 154.815 214.108,153.268 214.845,149.983 217.872 M158.889 215.723 C 154.850 217.949,148.889 223.174,148.889 224.488 C 148.889 227.152,151.453 225.998,156.220 221.188 C 160.783 216.584,162.056 213.978,158.889 215.723 M222.733 259.815 C 222.547 260.528,222.394 259.944,222.394 258.519 C 222.394 257.093,222.547 256.509,222.733 257.222 C 222.919 257.935,222.919 259.102,222.733 259.815 M233.333 263.310 C 233.333 263.971,232.899 264.231,232.226 263.973 C 231.618 263.740,231.304 263.250,231.529 262.885 C 232.176 261.839,233.333 262.112,233.333 263.310 M223.495 267.953 C 223.324 269.079,223.180 268.333,223.175 266.296 C 223.169 264.259,223.309 263.338,223.484 264.249 C 223.660 265.160,223.665 266.827,223.495 267.953 M217.037 270.741 C 217.037 272.167,217.370 273.333,217.778 273.333 C 218.185 273.333,218.519 272.167,218.519 270.741 C 218.519 269.315,218.185 268.148,217.778 268.148 C 217.370 268.148,217.037 269.315,217.037 270.741 M213.064 273.066 C 212.261 278.924,212.480 282.963,213.601 282.963 C 214.631 282.963,215.536 278.058,215.549 272.407 C 215.559 268.252,213.654 268.757,213.064 273.066 M206.450 280.177 C 206.273 281.098,206.121 280.519,206.113 278.889 C 206.105 277.259,206.249 276.505,206.435 277.214 C 206.620 277.922,206.627 279.255,206.450 280.177 M232.765 285.826 C 231.147 286.842,230.301 292.885,229.643 308.148 C 228.974 323.636,227.747 333.197,224.542 347.882 C 222.630 356.642,220.012 365.185,219.239 365.185 C 218.900 365.185,218.973 364.102,219.402 362.778 C 222.635 352.792,225.155 339.142,227.024 321.481 C 227.649 315.574,228.348 308.991,228.578 306.852 C 228.962 303.277,228.871 302.963,227.461 302.963 C 225.740 302.963,225.553 299.985,226.669 290.370 C 227.067 286.946,227.126 287.963,226.874 293.889 C 226.641 299.389,226.782 302.222,227.291 302.222 C 228.545 302.222,228.813 301.287,229.638 294.004 C 230.379 287.455,232.390 281.984,233.182 284.360 C 233.364 284.908,233.177 285.568,232.765 285.826 M212.240 287.593 C 212.072 288.102,211.399 292.352,210.744 297.037 C 210.090 301.722,208.880 308.722,208.057 312.593 C 205.730 323.528,205.486 326.667,206.966 326.667 C 208.489 326.667,208.348 327.169,210.690 313.333 C 213.340 297.675,214.592 288.589,214.243 287.543 C 213.858 286.390,212.627 286.421,212.240 287.593 M223.495 296.101 C 223.324 297.227,223.180 296.481,223.175 294.444 C 223.169 292.407,223.309 291.486,223.484 292.397 C 223.660 293.308,223.665 294.975,223.495 296.101 M215.971 305.000 C 215.694 310.602,215.131 317.146,214.720 319.542 C 213.930 324.151,214.732 326.632,216.151 323.968 C 218.271 319.989,219.433 294.815,217.497 294.815 C 216.702 294.815,216.363 297.080,215.971 305.000 M236.839 306.667 C 236.802 309.611,236.707 309.971,236.497 307.963 C 236.310 306.174,235.827 305.185,235.140 305.185 C 233.790 305.185,233.661 300.265,235.000 299.806 C 236.256 299.374,236.900 301.777,236.839 306.667 M222.746 303.880 C 222.569 304.802,222.417 304.222,222.409 302.593 C 222.401 300.963,222.546 300.209,222.731 300.917 C 222.917 301.626,222.923 302.959,222.746 303.880 M233.857 311.288 C 233.680 312.209,233.528 311.630,233.520 310.000 C 233.512 308.370,233.657 307.616,233.842 308.325 C 234.028 309.033,234.034 310.366,233.857 311.288 M239.186 317.751 C 239.145 320.414,238.840 325.426,238.507 328.889 C 238.014 334.024,237.971 333.375,238.277 325.370 C 238.664 315.257,237.570 311.386,236.708 319.815 C 234.594 340.471,231.936 355.217,226.197 378.119 C 218.169 410.161,217.312 443.704,224.522 443.704 C 225.007 443.704,225.115 444.559,224.808 445.956 C 224.459 447.548,224.709 448.797,225.662 450.215 C 226.890 452.043,229.034 458.608,228.560 459.091 C 228.202 459.455,223.794 449.108,222.186 444.129 C 221.229 441.169,220.202 439.259,219.565 439.259 C 218.035 439.259,218.266 441.196,220.631 448.194 C 224.309 459.074,228.510 465.410,233.386 467.429 C 235.215 468.187,236.257 469.673,238.856 475.235 C 242.375 482.765,242.937 483.283,253.187 488.445 C 256.119 489.921,258.931 491.792,259.437 492.602 C 260.629 494.510,262.036 494.468,263.650 492.475 C 264.379 491.575,265.322 491.108,265.806 491.407 C 267.131 492.226,266.879 496.797,265.479 497.334 C 264.800 497.595,264.473 498.264,264.715 498.895 C 265.272 500.348,265.147 500.328,259.386 498.027 C 250.899 494.638,244.709 490.429,239.138 484.259 C 236.287 481.102,233.564 478.511,233.088 478.502 C 232.612 478.494,231.722 477.410,231.111 476.095 C 229.839 473.356,226.912 472.464,225.507 474.386 C 224.743 475.430,224.520 475.303,223.719 473.370 C 221.453 467.899,218.169 468.784,220.275 474.298 C 222.343 479.712,227.151 482.803,225.522 477.672 C 225.042 476.159,225.089 476.145,226.750 477.308 C 227.700 477.974,229.154 478.527,229.980 478.538 C 230.928 478.551,232.164 479.671,233.333 481.579 C 235.988 485.909,243.529 492.723,249.768 496.430 C 253.340 498.552,254.697 499.703,253.823 499.872 C 250.480 500.516,252.181 501.650,265.556 507.691 C 276.955 512.841,279.510 513.495,286.118 512.957 C 292.936 512.402,294.427 513.195,296.569 518.519 C 297.470 520.759,299.111 523.920,300.215 525.542 C 303.871 530.915,303.027 531.343,294.362 528.515 C 289.723 527.001,288.460 526.829,287.487 527.583 C 286.832 528.090,284.775 529.758,282.915 531.290 C 277.477 535.768,272.124 535.432,260.890 529.907 C 256.230 527.615,251.505 525.668,250.391 525.580 C 249.277 525.493,247.575 524.868,246.610 524.192 C 244.391 522.638,240.741 522.552,240.741 524.055 C 240.741 525.470,244.945 527.643,246.763 527.168 C 247.642 526.938,248.441 527.312,248.899 528.166 C 250.110 530.429,249.766 532.696,248.148 533.119 C 246.243 533.617,246.256 534.943,248.178 536.143 C 249.893 537.214,251.111 536.760,251.111 535.051 C 251.111 534.155,251.341 534.083,252.124 534.733 C 252.894 535.373,253.359 535.306,254.066 534.454 C 255.119 533.185,257.603 533.004,259.259 534.074 C 260.224 534.697,260.210 534.794,259.153 534.803 C 258.484 534.810,257.744 535.315,257.510 535.926 C 257.258 536.582,256.146 537.037,254.796 537.037 C 251.638 537.037,245.787 538.530,244.444 539.677 C 243.537 540.454,243.070 540.435,241.895 539.573 C 236.532 535.640,222.159 540.606,225.124 545.368 C 226.061 546.871,226.047 546.941,224.989 546.067 C 223.991 545.241,223.178 545.519,219.560 547.918 L 215.304 550.741 205.986 550.740 C 194.707 550.740,190.838 549.256,177.534 539.827 C 166.628 532.098,163.211 532.447,150.212 542.616 C 142.957 548.291,138.162 549.160,121.468 547.826 C 113.737 547.208,113.635 547.221,108.381 549.528 C 94.860 555.462,85.084 548.985,93.333 539.557 C 97.988 534.238,97.972 533.997,92.593 528.831 C 84.389 520.951,87.659 516.033,108.084 505.532 L 115.057 501.947 117.158 504.464 C 119.872 507.715,119.827 507.922,116.278 508.522 C 102.114 510.915,93.405 525.562,99.290 537.096 C 101.804 542.025,111.716 542.570,122.593 538.377 C 124.630 537.592,128.909 536.753,132.103 536.513 C 137.527 536.104,140.739 534.444,137.922 533.505 C 136.832 533.141,138.409 529.888,140.665 527.846 C 143.922 524.899,141.814 524.151,138.383 527.037 C 137.173 528.056,135.510 528.889,134.687 528.889 C 133.865 528.889,132.307 529.511,131.225 530.271 C 117.769 539.729,97.287 534.983,101.849 523.464 C 103.809 518.514,110.675 512.504,114.230 512.625 C 114.755 512.643,113.968 513.301,112.480 514.087 C 109.504 515.659,106.924 519.268,106.205 522.863 C 105.580 525.989,106.416 525.789,109.970 521.961 C 112.449 519.291,113.570 518.657,116.494 518.270 C 121.911 517.553,124.323 515.964,126.018 511.995 C 127.370 508.828,130.555 505.278,132.104 505.212 C 132.447 505.197,135.280 502.816,138.400 499.920 C 141.521 497.025,145.263 493.892,146.716 492.960 C 151.500 489.889,158.926 481.168,167.630 468.400 C 169.341 465.890,172.074 462.164,173.704 460.120 C 182.768 448.751,189.751 437.909,193.819 428.889 C 199.713 415.818,205.873 403.110,208.542 398.519 C 211.104 394.109,212.161 391.152,213.665 384.189 C 215.773 374.429,217.353 370.448,216.577 376.852 C 216.269 379.388,216.378 380.741,216.888 380.741 C 219.153 380.741,229.200 343.597,232.117 324.444 C 233.060 318.250,233.197 317.873,233.261 321.296 C 233.372 327.254,235.556 326.051,235.556 320.032 C 235.556 315.170,236.280 312.910,237.839 312.910 C 239.102 312.910,239.251 313.447,239.186 317.751 M232.328 330.732 C 232.096 331.338,231.706 333.588,231.463 335.732 C 231.220 337.876,230.861 340.412,230.664 341.369 C 229.897 345.095,232.161 342.370,233.071 338.472 C 234.550 332.136,233.998 326.381,232.328 330.732 M204.198 331.605 C 203.926 331.877,203.704 332.990,203.704 334.080 C 203.704 335.900,202.429 340.741,201.121 343.889 C 200.124 346.287,202.857 345.316,204.153 342.811 C 206.390 338.485,206.426 329.376,204.198 331.605 M217.755 347.593 C 217.737 349.508,217.586 349.748,217.013 348.767 C 216.618 348.089,216.497 347.006,216.745 346.360 C 217.442 344.544,217.780 344.957,217.755 347.593 M220.039 349.296 C 219.680 350.498,219.358 350.925,219.323 350.246 C 219.252 348.866,220.042 346.462,220.437 346.857 C 220.577 346.997,220.398 348.095,220.039 349.296 M228.547 351.246 C 227.250 355.614,227.099 357.778,228.091 357.778 C 228.847 357.778,229.996 354.451,230.712 350.185 C 231.412 346.017,229.876 346.769,228.547 351.246 M183.111 360.148 C 181.836 361.424,181.970 365.185,183.291 365.185 C 184.603 365.185,186.667 362.368,186.667 360.576 C 186.667 359.063,184.462 358.798,183.111 360.148 M241.563 367.433 C 240.840 369.247,240.834 369.244,240.798 367.037 C 240.738 363.442,241.784 360.422,242.072 363.359 C 242.193 364.596,241.964 366.429,241.563 367.433 M242.963 373.704 C 243.814 375.942,245.185 376.144,245.185 374.030 C 245.185 372.091,246.525 372.864,247.469 375.347 C 247.956 376.628,247.914 377.537,247.337 378.233 C 246.697 379.004,246.783 379.859,247.691 381.774 C 249.249 385.057,249.203 385.405,247.344 384.410 C 243.187 382.186,244.997 386.317,250.403 391.393 C 254.546 395.283,257.778 396.717,257.778 394.667 C 257.778 392.054,259.272 395.777,259.707 399.471 C 260.139 403.148,260.049 403.676,259.058 403.296 C 258.319 403.012,257.798 403.338,257.603 404.205 C 257.402 405.099,256.957 404.466,256.287 402.330 C 255.073 398.463,253.908 397.872,250.796 399.548 C 249.506 400.243,247.883 400.593,247.189 400.326 C 245.414 399.645,245.538 401.866,247.407 404.242 C 249.699 407.155,249.313 409.419,246.931 407.037 C 244.111 404.217,242.811 407.244,245.481 410.416 C 247.898 413.290,247.922 414.232,245.562 413.639 C 243.215 413.050,242.264 415.037,243.984 416.938 C 245.472 418.582,245.534 420.000,244.118 420.000 C 241.201 420.000,242.044 423.869,245.437 426.056 C 246.724 426.886,247.111 427.316,246.296 427.011 C 241.286 425.138,239.474 426.041,241.875 429.216 C 242.474 430.006,242.924 431.506,242.877 432.549 C 242.820 433.804,242.677 434.007,242.452 433.148 C 242.266 432.435,241.638 431.852,241.057 431.852 C 239.502 431.852,239.741 435.493,241.484 438.351 C 243.592 441.809,243.312 442.458,240.798 439.943 C 237.300 436.445,235.830 437.358,238.281 441.508 C 239.254 443.154,239.351 443.988,238.726 445.326 C 237.977 446.928,237.779 446.719,235.630 442.053 L 233.333 437.070 233.333 422.016 C 233.333 404.571,235.622 374.278,236.220 383.798 C 236.326 385.482,238.098 386.782,239.536 386.230 C 240.784 385.751,241.248 382.963,240.079 382.963 C 238.561 382.963,238.551 380.171,240.056 376.146 C 241.882 371.264,241.998 371.166,242.963 373.704 M134.815 380.741 C 134.815 382.908,135.120 383.704,135.949 383.704 C 137.543 383.704,138.122 381.716,137.150 379.582 C 135.913 376.866,134.815 377.410,134.815 380.741 M209.959 385.514 C 209.680 387.001,209.304 388.069,209.123 387.888 C 208.942 387.707,209.022 386.343,209.300 384.856 C 209.579 383.369,209.956 382.301,210.137 382.482 C 210.318 382.663,210.238 384.028,209.959 385.514 M247.538 396.032 C 247.925 397.995,250.044 398.970,251.429 397.822 C 252.979 396.535,251.655 394.815,249.114 394.815 C 247.827 394.815,247.368 395.169,247.538 396.032 M161.303 401.325 C 161.815 402.226,161.923 402.963,161.542 402.963 C 160.958 402.963,158.519 398.943,158.519 397.981 C 158.519 397.442,160.333 399.622,161.303 401.325 M167.369 416.296 C 167.730 416.296,168.148 415.925,168.300 415.472 C 168.451 415.018,168.971 415.518,169.457 416.583 C 170.191 418.195,170.155 418.519,169.243 418.519 C 167.751 418.519,167.766 418.580,171.014 425.828 C 174.791 434.253,175.115 435.413,174.051 436.694 C 172.848 438.144,171.682 437.288,172.682 435.688 C 173.315 434.674,172.602 432.328,169.259 424.426 C 164.525 413.237,163.816 411.301,165.532 414.259 C 166.182 415.380,167.009 416.296,167.369 416.296 M253.327 415.575 C 252.056 416.378,250.370 416.519,250.370 415.822 C 250.370 414.758,252.980 413.450,253.698 414.155 C 254.181 414.630,254.055 415.115,253.327 415.575 M191.029 422.881 C 190.572 424.190,190.069 425.131,189.911 424.973 C 189.753 424.814,189.996 423.614,190.453 422.305 C 190.909 420.995,191.412 420.054,191.570 420.212 C 191.729 420.371,191.485 421.572,191.029 422.881 M180.256 424.106 C 180.014 424.735,180.003 425.435,180.230 425.662 C 180.878 426.310,182.222 425.210,182.222 424.030 C 182.222 422.609,180.809 422.663,180.256 424.106 M207.262 423.355 C 206.791 423.826,206.802 423.875,211.015 440.177 C 213.960 451.574,215.476 455.702,217.081 456.694 C 218.724 457.709,218.638 456.209,216.751 450.961 C 215.681 447.988,214.129 442.122,213.302 437.925 C 211.121 426.865,208.962 421.655,207.262 423.355 M227.028 437.662 C 226.636 438.057,225.186 432.405,225.252 430.741 C 225.285 429.926,225.754 431.093,226.296 433.333 C 226.837 435.574,227.167 437.522,227.028 437.662 M248.825 431.972 C 248.240 433.065,247.784 433.351,247.584 432.751 C 247.258 431.775,248.843 429.337,249.425 429.919 C 249.603 430.097,249.333 431.021,248.825 431.972 M169.844 434.074 C 169.631 434.889,169.746 435.556,170.099 435.556 C 170.452 435.556,170.741 436.389,170.741 437.407 C 170.741 438.426,170.491 439.259,170.185 439.259 C 169.880 439.259,169.630 438.801,169.630 438.241 C 169.630 437.681,169.421 436.181,169.167 434.907 C 168.888 433.512,169.007 432.593,169.468 432.593 C 169.888 432.593,170.057 433.259,169.844 434.074 M205.185 433.700 C 205.185 435.352,211.761 455.020,212.591 455.851 C 214.296 457.556,214.228 455.085,212.415 449.422 C 211.342 446.073,210.094 441.833,209.642 440.000 C 208.072 433.636,205.185 429.555,205.185 433.700 M140.741 446.281 C 140.741 447.424,143.233 452.593,143.784 452.593 C 144.147 452.593,144.444 453.899,144.444 455.495 C 144.444 457.091,144.647 458.925,144.894 459.569 C 145.533 461.234,148.148 461.074,148.148 459.370 C 148.148 457.343,146.624 453.333,145.853 453.333 C 145.486 453.333,145.185 452.845,145.185 452.247 C 145.185 450.385,142.737 445.926,141.715 445.926 C 141.179 445.926,140.741 446.086,140.741 446.281 M176.233 447.441 C 177.153 446.949,178.074 446.716,178.280 446.922 C 178.487 447.129,177.594 447.847,176.296 448.519 C 173.633 449.896,173.710 449.922,172.978 447.407 C 172.475 445.678,172.510 445.648,173.501 446.946 C 174.399 448.122,174.819 448.198,176.233 447.441 M202.963 447.608 C 202.963 450.852,207.979 462.222,209.411 462.222 C 211.301 462.222,206.226 447.188,204.203 446.798 C 203.514 446.665,202.963 447.025,202.963 447.608 M233.769 457.589 C 232.973 458.386,232.550 457.270,233.109 455.847 C 233.633 454.512,233.673 454.510,233.932 455.799 C 234.082 456.544,234.009 457.349,233.769 457.589 M211.317 460.029 C 211.748 463.238,213.201 465.619,214.145 464.661 C 215.147 463.644,213.344 457.037,212.065 457.037 C 211.150 457.037,210.998 457.647,211.317 460.029 M218.519 460.194 C 218.519 461.637,224.226 470.370,225.169 470.370 C 226.486 470.370,225.917 468.649,223.103 464.129 C 220.390 459.771,218.519 458.164,218.519 460.194 M142.222 465.495 C 142.222 470.190,142.727 471.852,144.153 471.852 C 144.796 471.852,145.185 471.048,145.185 469.720 C 145.185 467.190,146.983 465.233,147.668 467.018 C 147.945 467.740,147.675 468.148,146.918 468.148 C 145.920 468.148,145.815 468.756,146.244 472.037 C 146.969 477.579,148.215 482.222,148.977 482.222 C 149.857 482.222,149.807 475.793,148.902 472.637 C 147.594 468.078,148.696 469.412,150.355 474.397 C 152.339 480.359,154.497 481.306,153.894 475.950 C 153.118 469.069,147.034 459.042,145.676 462.407 C 145.377 463.148,145.290 463.148,145.244 462.407 C 145.023 458.919,142.222 461.782,142.222 465.495 M210.370 464.705 C 210.370 465.323,210.722 466.768,211.152 467.915 C 211.906 469.928,211.856 469.911,209.700 467.407 C 207.945 465.369,207.461 465.108,207.438 466.188 C 207.392 468.272,218.527 489.582,220.103 490.425 C 220.861 490.831,221.481 491.628,221.481 492.195 C 221.481 493.768,223.776 495.780,224.614 494.942 C 225.553 494.003,224.007 491.111,222.567 491.111 C 221.931 491.111,221.481 490.412,221.481 489.424 C 221.481 488.496,220.959 486.990,220.319 486.078 C 218.376 483.303,212.052 470.370,212.638 470.370 C 212.940 470.370,213.875 471.537,214.717 472.963 C 216.094 475.297,217.796 476.434,217.766 475.000 C 217.707 472.128,210.370 461.916,210.370 464.705 M249.218 465.370 C 248.576 467.458,246.523 471.931,246.983 470.238 C 247.169 469.554,247.544 467.804,247.817 466.349 C 248.090 464.894,248.632 463.704,249.021 463.704 C 249.414 463.704,249.501 464.447,249.218 465.370 M256.333 469.841 C 254.416 474.703,251.743 480.138,251.425 479.820 C 251.046 479.441,252.504 474.758,254.460 470.078 C 255.665 467.193,257.468 466.965,256.333 469.841 M265.353 473.306 C 266.370 474.106,267.944 476.486,268.851 478.595 C 270.501 482.429,274.619 487.407,276.142 487.407 C 276.586 487.407,277.126 487.693,277.341 488.041 C 277.557 488.390,276.855 488.507,275.782 488.302 C 274.189 487.997,273.919 488.156,274.306 489.167 C 274.697 490.185,274.536 490.273,273.402 489.666 C 272.643 489.260,271.811 488.086,271.553 487.057 C 270.966 484.718,268.893 484.559,268.878 486.852 C 268.868 488.200,268.729 488.306,268.148 487.407 C 267.753 486.796,267.425 485.189,267.419 483.835 C 267.403 480.357,265.004 480.850,264.414 484.452 C 263.596 489.454,262.858 489.979,259.954 487.622 L 257.407 485.556 259.074 482.250 L 260.741 478.945 260.741 482.065 C 260.741 485.265,262.308 486.479,263.254 484.013 C 263.983 482.113,263.768 474.838,262.937 473.285 C 261.952 471.445,262.999 471.454,265.353 473.306 M143.704 476.236 C 143.704 480.201,144.231 482.222,145.264 482.222 C 145.628 482.222,145.926 480.056,145.926 477.407 C 145.926 473.621,145.689 472.593,144.815 472.593 C 143.978 472.593,143.704 473.491,143.704 476.236 M256.832 480.582 C 256.306 483.353,255.583 485.185,255.016 485.185 C 253.738 485.185,253.820 484.439,255.628 479.606 C 257.581 474.387,257.952 474.688,256.832 480.582 M221.301 481.909 C 220.551 482.659,221.554 484.444,222.726 484.444 C 223.342 484.444,223.709 483.910,223.573 483.210 C 223.316 481.884,222.050 481.159,221.301 481.909 M182.963 483.333 C 182.963 483.944,182.713 484.446,182.407 484.447 C 182.102 484.448,180.898 486.218,179.732 488.379 L 177.613 492.309 178.711 499.303 C 179.315 503.149,179.519 506.407,179.164 506.543 C 178.139 506.935,178.414 509.951,179.618 511.525 C 180.222 512.316,181.057 514.169,181.472 515.644 C 182.830 520.466,187.408 524.541,187.407 520.926 C 187.406 518.840,183.124 510.386,181.815 509.883 C 180.894 509.530,180.835 509.288,181.561 508.840 C 182.317 508.373,182.336 506.806,181.657 501.001 C 180.967 495.106,180.992 493.534,181.789 492.614 C 182.328 491.991,182.953 490.981,183.178 490.370 C 183.403 489.759,183.613 490.488,183.645 491.989 C 183.724 495.658,184.892 498.519,186.312 498.519 C 187.215 498.519,187.382 497.982,187.059 496.111 C 186.578 493.327,185.222 483.600,185.200 482.778 C 185.171 481.693,182.963 482.241,182.963 483.333 M397.788 483.148 C 397.808 484.962,398.702 487.407,399.346 487.407 C 399.706 487.407,400.000 486.241,400.000 484.815 C 400.000 483.004,399.665 482.222,398.889 482.222 C 398.278 482.222,397.782 482.639,397.788 483.148 M378.519 485.185 C 377.500 485.982,376.167 486.627,375.556 486.619 C 374.944 486.611,375.611 485.966,377.037 485.185 C 380.363 483.364,380.847 483.364,378.519 485.185 M279.074 490.837 C 280.899 491.326,281.222 492.556,279.878 493.900 C 279.221 494.557,278.804 494.475,278.133 493.558 C 276.600 491.461,274.815 492.922,274.815 496.273 C 274.815 497.915,274.548 499.259,274.223 499.259 C 273.300 499.259,274.153 493.901,275.373 492.040 C 276.570 490.213,276.649 490.187,279.074 490.837 M216.296 491.816 C 216.296 492.646,227.910 506.181,228.932 506.543 C 230.759 507.190,229.148 504.385,224.050 498.048 C 219.117 491.913,216.296 489.647,216.296 491.816 M367.795 497.010 C 367.289 497.827,362.107 499.391,361.596 498.880 C 361.193 498.477,365.875 496.367,367.266 496.325 C 367.799 496.309,368.037 496.617,367.795 497.010 M175.566 499.444 C 175.585 504.112,177.163 506.909,178.221 504.152 C 178.749 502.777,177.173 497.037,176.268 497.037 C 175.876 497.037,175.560 498.120,175.566 499.444 M268.889 498.889 C 268.889 499.500,268.556 500.000,268.148 500.000 C 267.741 500.000,267.407 499.500,267.407 498.889 C 267.407 498.278,267.741 497.778,268.148 497.778 C 268.556 497.778,268.889 498.278,268.889 498.889 M287.418 503.738 L 286.625 505.556 287.006 503.704 C 287.216 502.685,287.437 501.185,287.498 500.370 C 287.606 498.927,287.617 498.928,287.910 500.405 C 288.076 501.239,287.855 502.739,287.418 503.738 M182.963 501.088 C 182.963 505.025,186.060 513.446,187.119 512.387 C 187.761 511.745,184.767 501.219,183.856 500.915 C 183.365 500.751,182.963 500.829,182.963 501.088 M358.519 501.092 C 358.519 501.541,354.340 503.714,353.555 503.673 C 353.230 503.656,354.130 503.003,355.556 502.222 C 358.475 500.624,358.519 500.607,358.519 501.092 M241.481 511.111 C 241.481 512.099,241.975 512.593,242.963 512.593 C 244.642 512.593,244.861 511.824,243.556 510.519 C 242.250 509.213,241.481 509.432,241.481 511.111 M282.786 510.139 C 282.078 510.324,280.745 510.331,279.823 510.154 C 278.902 509.976,279.481 509.825,281.111 509.816 C 282.741 509.808,283.495 509.953,282.786 510.139 M316.296 510.295 L 319.630 510.851 316.049 511.445 C 311.583 512.186,302.266 511.634,300.335 510.514 C 298.622 509.520,310.655 509.355,316.296 510.295 M235.556 511.428 C 235.556 512.664,238.999 515.556,240.470 515.556 C 242.111 515.556,241.638 514.338,239.202 512.288 C 236.637 510.129,235.556 509.874,235.556 511.428 M323.704 511.111 C 323.704 512.048,322.190 512.048,320.741 511.111 C 319.875 510.552,320.079 510.391,321.667 510.382 C 322.787 510.375,323.704 510.704,323.704 511.111 M176.641 513.889 C 177.391 516.909,178.766 519.480,179.815 519.822 C 181.075 520.232,180.978 518.400,179.549 514.830 C 178.158 511.352,175.824 510.597,176.641 513.889 M252.773 518.704 C 253.254 520.169,257.823 522.963,259.739 522.963 C 262.389 522.963,261.847 522.058,257.853 519.815 C 253.920 517.606,252.296 517.251,252.773 518.704 M180.741 525.403 C 180.741 525.998,181.273 526.927,181.923 527.466 C 182.955 528.323,183.073 528.224,182.849 526.689 C 182.569 524.768,180.741 523.652,180.741 525.403 M261.481 526.612 C 261.481 527.507,269.080 531.852,270.646 531.852 C 273.213 531.852,271.665 529.714,267.758 527.864 C 263.493 525.845,261.481 525.444,261.481 526.612 M102.222 528.094 C 102.222 529.154,102.698 529.630,103.758 529.630 C 104.818 529.630,105.217 529.231,105.046 528.342 C 104.674 526.411,102.222 526.196,102.222 528.094 M234.748 527.858 C 233.690 529.133,235.394 531.111,237.549 531.111 C 238.082 531.111,238.519 531.575,238.519 532.143 C 238.519 533.432,240.196 534.128,241.444 533.356 C 242.102 532.950,242.229 531.862,241.867 529.721 C 241.291 526.308,236.973 525.177,234.748 527.858 M330.185 527.979 C 327.721 528.507,328.732 530.370,331.481 530.370 C 333.195 530.370,334.074 530.023,334.074 529.346 C 334.074 528.212,332.189 527.550,330.185 527.979 M335.926 528.889 C 334.903 530.545,336.708 531.111,343.007 531.111 C 348.099 531.111,349.630 530.878,349.630 530.103 C 349.630 528.474,336.880 527.345,335.926 528.889 M144.630 532.404 C 140.216 534.601,142.283 535.738,147.061 533.742 C 149.771 532.609,150.525 531.078,148.333 531.158 C 147.620 531.185,145.954 531.745,144.630 532.404 M231.578 532.778 C 230.846 535.508,231.047 537.037,232.136 537.037 C 233.153 537.037,234.045 534.896,234.064 532.407 C 234.079 530.523,232.103 530.817,231.578 532.778 M197.778 532.478 C 197.778 533.460,200.694 535.849,201.235 535.309 C 201.501 535.042,201.114 534.155,200.374 533.338 C 198.977 531.794,197.778 531.396,197.778 532.478 M108.914 537.778 C 111.235 537.778,111.717 538.007,111.360 538.939 C 111.044 539.761,110.684 539.869,110.124 539.309 C 109.689 538.874,108.261 538.519,106.949 538.519 C 104.163 538.519,102.222 537.885,102.222 536.976 C 102.222 536.622,103.077 536.658,104.122 537.055 C 105.167 537.453,107.324 537.778,108.914 537.778 M204.444 537.778 C 204.444 538.185,205.297 538.519,206.340 538.519 C 207.415 538.519,208.037 538.198,207.778 537.778 C 207.526 537.370,206.673 537.037,205.882 537.037 C 205.091 537.037,204.444 537.370,204.444 537.778 M239.259 541.826 C 239.259 542.015,238.600 542.523,237.794 542.954 C 236.599 543.594,236.409 543.530,236.763 542.610 C 237.146 541.610,239.259 540.946,239.259 541.826 M163.336 543.896 C 164.889 544.125,164.472 544.256,161.946 544.333 C 158.767 544.431,158.450 544.308,159.288 543.298 C 159.827 542.649,160.429 542.459,160.678 542.861 C 160.919 543.251,162.115 543.717,163.336 543.896 M234.444 543.704 C 234.696 544.111,234.216 544.444,233.377 544.444 C 232.515 544.444,231.852 544.928,231.852 545.556 C 231.852 546.251,231.149 546.667,229.974 546.667 C 227.565 546.667,228.676 543.990,231.295 543.486 C 232.212 543.309,233.193 543.119,233.475 543.064 C 233.756 543.008,234.193 543.296,234.444 543.704 M245.185 544.444 C 244.749 545.259,243.892 545.926,243.281 545.926 C 242.400 545.926,242.334 545.620,242.963 544.444 C 243.399 543.630,244.256 542.963,244.867 542.963 C 245.749 542.963,245.814 543.269,245.185 544.444 M174.221 544.992 C 171.676 545.169,170.148 545.642,169.882 546.336 C 169.353 547.716,167.407 547.733,167.407 546.358 C 167.407 545.781,166.991 545.141,166.481 544.935 C 165.972 544.730,168.389 544.597,171.852 544.640 C 176.079 544.693,176.858 544.808,174.221 544.992 " stroke="none" fill="#000000" fill-rule="evenodd"></path></g></svg>