<svg id="svg" xmlns="http://www.w3.org/2000/svg" xmlns:xlink="http://www.w3.org/1999/xlink" width="400" height="400" viewBox="0, 0, 400,400">
    <g id="svgg">
        <path id="path0" d="M163.020 3.281 C 107.175 12.925,54.367 50.946,25.012 102.643 C 19.836 111.759,13.203 125.761,13.041 127.916 C 12.977 128.766,12.591 129.461,12.183 129.461 C 11.775 129.461,11.656 130.021,11.918 130.705 C 12.181 131.390,12.063 131.950,11.657 131.950 C 10.956 131.950,9.455 135.655,8.763 139.090 C 8.589 139.956,8.044 141.704,7.552 142.975 C 7.060 144.246,6.698 145.553,6.747 145.879 C 6.796 146.206,6.763 146.660,6.674 146.888 C 6.402 147.585,5.730 150.528,5.442 152.282 C 5.292 153.195,4.286 158.050,3.207 163.071 C 0.582 175.282,0.225 223.900,2.676 235.270 C 3.983 241.329,4.474 243.753,5.369 248.548 C 5.539 249.461,5.913 251.141,6.201 252.282 C 6.489 253.423,6.911 255.264,7.140 256.373 C 7.368 257.482,7.749 258.702,7.985 259.084 C 8.221 259.466,8.596 260.799,8.819 262.047 C 9.043 263.295,9.772 265.156,10.441 266.183 C 11.109 267.210,11.415 268.050,11.121 268.050 C 10.826 268.050,11.050 268.610,11.618 269.295 C 12.186 269.979,12.433 270.539,12.166 270.539 C 11.899 270.539,12.996 273.620,14.602 277.386 C 41.091 339.476,99.601 386.762,163.282 397.546 C 255.099 413.094,340.172 369.918,381.791 286.648 C 385.005 280.218,387.696 274.149,387.770 273.163 C 387.844 272.176,388.239 271.369,388.647 271.369 C 389.055 271.369,389.174 270.809,388.912 270.124 C 388.649 269.440,388.744 268.880,389.124 268.880 C 389.732 268.880,392.401 261.578,392.832 258.736 C 392.920 258.153,393.284 257.210,393.641 256.639 C 393.997 256.068,394.074 255.254,393.811 254.829 C 393.549 254.404,393.739 253.806,394.234 253.500 C 394.729 253.194,394.938 252.434,394.699 251.810 C 394.459 251.186,394.597 250.470,395.004 250.218 C 395.412 249.966,395.734 249.114,395.720 248.324 C 395.706 247.534,395.901 246.017,396.153 244.952 C 400.673 225.867,401.465 181.037,397.601 163.071 C 396.619 158.506,395.657 153.838,395.463 152.697 C 394.813 148.863,394.518 147.769,393.995 147.246 C 393.709 146.960,393.662 146.240,393.890 145.646 C 394.118 145.052,393.899 144.316,393.404 144.010 C 392.909 143.704,392.719 143.106,392.981 142.681 C 393.244 142.256,393.163 141.442,392.800 140.871 C 392.438 140.301,392.112 139.647,392.075 139.419 C 391.722 137.209,389.632 131.950,389.106 131.950 C 388.736 131.950,388.649 131.390,388.912 130.705 C 389.174 130.021,389.055 129.461,388.647 129.461 C 388.239 129.461,387.844 128.654,387.770 127.667 C 387.571 125.019,376.740 103.749,370.724 94.191 C 349.633 60.680,313.857 30.303,277.042 14.645 C 245.654 1.295,200.550 -3.200,163.020 3.281 M306.751 91.877 C 323.506 100.839,323.926 123.855,307.519 133.999 L 303.450 136.515 200.480 136.515 L 97.510 136.515 94.134 134.707 C 78.360 126.264,76.532 102.638,90.963 93.719 C 97.772 89.511,93.106 89.674,201.660 89.864 L 303.320 90.041 306.751 91.877 M303.734 179.118 C 307.993 181.330,312.863 185.695,312.863 187.300 C 312.863 187.895,313.163 188.382,313.529 188.382 C 314.749 188.382,317.021 196.209,317.021 200.415 C 317.021 204.621,314.749 212.448,313.529 212.448 C 313.163 212.448,312.863 212.977,312.863 213.622 C 312.863 214.268,311.162 216.294,309.083 218.124 C 301.877 224.467,309.422 224.067,197.155 224.058 L 96.680 224.050 92.531 222.114 C 86.158 219.140,79.668 211.168,79.668 206.314 C 79.668 205.177,79.348 204.049,78.956 203.807 C 76.185 202.095,81.299 187.797,86.460 182.827 C 93.250 176.288,84.102 176.765,198.340 176.984 L 300.000 177.178 303.734 179.118 M307.183 266.587 C 321.496 275.000,323.767 294.527,311.672 305.174 C 304.317 311.648,312.012 311.249,199.134 311.006 L 98.340 310.788 93.555 308.438 C 76.339 299.985,77.223 274.333,95.021 265.875 L 99.170 263.903 201.245 264.109 L 303.320 264.315 307.183 266.587 " stroke="none" fill="#007888" fill-rule="evenodd"></path>
    </g>
</svg>