<svg id="svg" xmlns="http://www.w3.org/2000/svg" xmlns:xlink="http://www.w3.org/1999/xlink" width="400" height="400" viewBox="0, 0, 400,400"><g id="svgg"><path id="path0" d="M183.575 42.205 C 175.859 42.835,165.658 48.892,159.559 56.463 C 153.391 64.121,150.246 71.755,150.573 78.275 C 150.740 81.581,151.091 83.951,151.833 86.775 C 154.102 95.406,157.516 100.460,164.725 105.856 C 169.620 109.520,174.297 111.895,180.375 113.801 C 186.751 115.801,194.612 116.559,202.900 115.973 C 204.812 115.838,208.965 115.155,211.700 114.526 C 228.329 110.700,240.188 103.640,248.401 92.675 C 252.803 86.798,255.134 80.372,255.603 72.825 C 256.374 60.387,251.105 51.733,238.875 45.355 C 233.218 42.404,228.101 42.018,225.913 44.375 C 223.197 47.300,224.090 50.058,229.200 54.532 C 232.696 57.593,234.003 60.051,234.697 64.875 C 235.445 70.064,234.937 72.454,232.208 76.600 C 227.837 83.241,221.543 87.242,211.675 89.652 C 199.385 92.653,189.317 90.921,180.479 84.287 C 174.010 79.432,171.536 74.787,171.947 68.275 C 172.339 62.076,175.189 58.217,182.175 54.425 C 186.382 52.141,189.021 49.884,190.050 47.686 C 191.632 44.311,188.653 41.790,183.575 42.205 M75.550 73.730 C 62.602 74.369,50.846 78.203,40.325 85.217 C 29.248 92.602,22.501 100.931,16.950 114.075 C 13.392 122.499,11.634 129.313,10.978 137.225 C 9.893 150.300,10.081 159.661,11.582 167.325 C 12.938 174.248,14.785 179.260,17.525 183.454 C 20.242 187.614,27.225 195.532,32.650 200.604 C 33.211 201.129,33.473 201.407,33.470 201.475 C 33.467 201.530,33.394 201.847,33.307 202.180 C 33.044 203.189,32.842 204.535,32.692 206.275 C 32.615 207.171,32.616 210.748,32.694 211.875 C 32.986 216.104,33.556 220.348,34.201 223.102 C 35.903 230.366,39.629 236.056,45.388 240.186 C 51.840 244.812,57.779 247.179,64.675 247.872 C 77.575 249.168,86.427 248.522,99.450 245.332 C 102.835 244.503,107.921 243.294,110.600 242.681 C 112.639 242.214,114.494 241.866,117.400 241.403 C 118.101 241.291,119.305 241.099,120.075 240.977 C 120.845 240.854,122.218 240.640,123.125 240.502 C 128.911 239.621,139.865 238.078,143.725 237.599 C 144.385 237.517,145.364 237.394,145.900 237.325 C 147.214 237.156,150.763 236.771,151.875 236.676 C 152.370 236.633,153.191 236.555,153.700 236.501 C 155.424 236.318,158.804 236.079,160.800 235.999 C 161.678 235.964,164.286 235.957,168.525 235.979 C 176.275 236.019,177.863 235.972,183.825 235.525 C 186.373 235.334,186.669 235.301,187.500 235.117 C 190.171 234.526,191.602 233.271,192.168 231.024 C 193.543 225.565,193.724 207.514,192.523 195.650 C 191.422 184.778,189.517 176.940,184.484 162.575 C 177.432 142.449,174.145 135.513,168.015 127.823 C 165.050 124.104,160.245 118.596,155.803 113.825 C 147.342 104.737,136.615 96.676,121.625 88.140 C 108.547 80.694,96.436 75.918,86.925 74.454 C 83.463 73.921,81.506 73.764,77.927 73.731 C 76.826 73.720,75.756 73.720,75.550 73.730 M320.825 73.730 C 313.498 73.928,304.500 75.905,297.550 78.843 C 297.481 78.872,297.043 79.045,296.577 79.228 C 294.723 79.952,293.079 80.667,289.850 82.155 C 281.449 86.026,269.474 93.063,261.456 98.839 C 254.779 103.649,249.423 108.257,244.874 113.102 C 240.898 117.339,238.791 119.694,234.771 124.401 C 227.439 132.985,224.480 138.296,219.216 152.325 C 216.873 158.567,214.834 164.350,213.019 169.899 C 208.894 182.512,207.307 191.773,206.749 206.500 C 206.553 211.680,206.688 220.738,207.027 225.150 C 207.491 231.173,208.053 232.905,209.941 234.122 C 211.511 235.134,212.966 235.378,219.800 235.773 C 220.529 235.815,221.586 235.877,222.150 235.911 C 222.886 235.956,225.472 235.974,231.325 235.977 C 237.060 235.979,239.734 235.998,240.350 236.040 C 242.230 236.167,242.770 236.206,244.000 236.303 C 244.701 236.358,245.714 236.448,246.250 236.501 C 246.786 236.555,247.720 236.644,248.325 236.698 C 250.488 236.892,255.220 237.448,258.550 237.898 C 259.169 237.982,260.024 238.097,260.450 238.153 C 260.876 238.209,262.012 238.366,262.975 238.501 C 263.938 238.635,265.546 238.860,266.550 239.000 C 272.314 239.803,280.764 241.083,284.389 241.702 C 287.168 242.176,288.729 242.506,292.775 243.474 C 293.298 243.599,294.760 243.947,296.025 244.248 C 297.290 244.549,299.259 245.022,300.400 245.300 C 303.117 245.961,305.611 246.517,307.125 246.801 C 310.416 247.416,311.517 247.591,314.050 247.898 C 320.954 248.735,328.933 248.682,336.500 247.749 C 340.349 247.275,344.448 245.995,348.200 244.097 C 359.322 238.471,364.777 231.074,366.474 219.317 C 367.574 211.699,367.631 205.968,366.646 202.018 L 366.494 201.411 367.033 200.893 C 374.814 193.402,380.777 186.457,383.512 181.700 C 386.953 175.715,389.214 166.313,389.656 156.150 C 389.750 153.993,389.631 146.707,389.451 143.525 C 388.847 132.884,388.122 128.525,385.772 121.396 C 382.529 111.558,378.082 103.054,372.975 96.925 C 365.827 88.347,354.833 81.043,343.318 77.222 C 340.271 76.211,338.601 75.768,334.774 74.957 C 330.611 74.075,325.318 73.609,320.825 73.730 M168.800 246.704 C 161.127 246.855,155.097 247.409,148.975 248.527 C 132.263 251.577,117.973 257.933,105.825 267.721 C 100.601 271.929,95.652 278.294,91.505 286.139 C 87.377 293.945,86.117 301.102,87.725 307.600 C 89.764 315.836,93.924 323.538,98.075 326.764 C 101.929 329.758,107.915 331.704,116.089 332.619 C 116.646 332.681,117.122 332.753,117.145 332.779 C 117.168 332.804,117.371 334.063,117.596 335.575 C 118.424 341.149,118.658 341.936,120.288 344.620 C 123.600 350.076,127.269 353.579,131.608 355.427 C 137.974 358.139,142.609 358.459,151.000 356.769 C 156.602 355.640,160.286 354.134,165.300 350.922 C 174.824 344.821,181.606 337.331,186.396 327.625 C 187.522 325.344,188.338 322.788,190.045 316.200 C 192.926 305.078,194.840 287.024,194.351 275.575 C 194.326 274.970,194.280 273.845,194.251 273.075 C 193.879 263.363,193.403 259.489,191.802 253.125 C 190.844 249.316,188.220 247.476,182.925 246.901 C 181.227 246.716,173.576 246.609,168.800 246.704 M223.975 246.680 C 221.739 246.708,218.278 246.803,217.625 246.854 C 213.132 247.208,210.105 248.714,208.838 251.225 C 208.098 252.691,206.856 258.510,206.378 262.750 C 206.036 265.789,205.649 273.341,205.567 278.575 C 205.401 289.252,207.195 305.197,209.680 315.125 C 211.458 322.232,212.428 325.291,213.754 327.975 C 218.243 337.062,224.828 344.412,233.792 350.343 C 239.702 354.253,243.974 355.951,250.850 357.125 C 256.965 358.168,260.532 358.051,265.050 356.657 C 271.082 354.796,274.751 352.002,278.569 346.363 C 280.137 344.047,280.719 342.974,281.255 341.409 C 281.728 340.030,281.788 339.712,282.503 334.900 C 282.851 332.561,282.788 332.728,283.338 332.680 C 291.813 331.936,299.158 329.393,302.925 325.898 C 307.172 321.957,311.866 311.924,312.772 304.850 C 313.528 298.942,311.826 292.079,307.823 284.900 C 303.321 276.824,298.705 271.215,292.800 266.642 C 284.620 260.309,275.361 255.418,265.475 252.209 C 252.438 247.977,241.110 246.468,223.975 246.680 " stroke="none" fill="#000000" fill-rule="evenodd"></path></g></svg>