<svg viewBox="0 0 512 512" xmlns="http://www.w3.org/2000/svg"><path d="m237.085938 100.414062c2.558593 0 5.117187-.976562 7.070312-2.929687l.191406-.1875c3.90625-3.90625 3.90625-10.238281 0-14.144531s-10.238281-3.90625-14.144531 0l-.1875.191406c-3.90625 3.902344-3.90625 10.234375 0 14.140625 1.953125 1.953125 4.511719 2.929687 7.070313 2.929687zm0 0"/><path d="m502.445312 171.4375c0-6.042969 2.355469-11.71875 6.625-15.992188 1.875-1.875 2.929688-4.417968 2.929688-7.070312s-1.054688-5.195312-2.929688-7.070312l-45.761718-45.765626c-3.90625-3.902343-10.238282-3.902343-14.144532 0-4.269531 4.273438-9.949218 6.625-15.988281 6.625-6.042969 0-11.722656-2.351562-15.992187-6.625-8.820313-8.816406-8.820313-23.167968 0-31.984374 3.902344-3.902344 3.902344-10.234376 0-14.140626l-46.488282-46.484374c-1.875-1.875-4.417968-2.929688-7.070312-2.929688s-5.195312 1.054688-7.070312 2.929688c-4.269532 4.269531-9.949219 6.625-15.992188 6.625-6.039062 0-11.71875-2.355469-15.992188-6.625-1.875-1.875-4.417968-2.929688-7.070312-2.929688s-5.195312 1.054688-7.070312 2.929688l-51.964844 51.964843c-3.90625 3.902344-3.90625 10.234375 0 14.140625s10.234375 3.90625 14.144531 0l14.140625-14.144531 170.359375 170.359375-231.859375 231.859375-170.359375-170.359375 168.953125-168.949219c3.902344-3.90625 3.902344-10.238281-.003906-14.144531-3.902344-3.902344-10.234375-3.902344-14.140625 0l-206.769531 206.773438c-1.875 1.875-2.929688 4.417968-2.929688 7.070312s1.054688 5.195312 2.929688 7.070312c4.269531 4.273438 6.625 9.949219 6.625 15.992188 0 6.039062-2.355469 11.71875-6.625 15.992188-1.875 1.875-2.929688 4.417968-2.929688 7.070312s1.054688 5.195312 2.929688 7.070312l46.484374 46.488282c1.875 1.875 4.421876 2.925781 7.070313 2.925781 2.652344 0 5.195313-1.050781 7.074219-2.925781 4.269531-4.273438 9.949218-6.625 15.988281-6.625 6.042969 0 11.71875 2.351562 15.992187 6.625 4.269532 4.269531 6.625 9.949218 6.625 15.992187 0 6.039063-2.351562 11.71875-6.625 15.988281-3.902343 3.90625-3.902343 10.238282 0 14.144532l45.765626 45.761718c1.953124 1.953126 4.511718 2.929688 7.070312 2.929688s5.117188-.976562 7.070312-2.929688c4.269532-4.269531 9.949219-6.625 15.992188-6.625 6.039062 0 11.71875 2.355469 15.988281 6.625 1.878907 1.875 4.421875 2.929688 7.070313 2.929688 2.652344 0 5.195312-1.054688 7.074218-2.929688l307.5-307.5c1.875-1.875 2.925782-4.417968 2.925782-7.070312s-1.050782-5.195312-2.925782-7.070312c-4.269531-4.273438-6.625-9.953126-6.625-15.992188zm-308.773437 317.25c-6.625-4.066406-14.265625-6.238281-22.234375-6.238281s-15.605469 2.171875-22.234375 6.238281l-33.277344-33.28125c4.066407-6.625 6.238281-14.261719 6.238281-22.230469 0-11.382812-4.433593-22.085937-12.480468-30.132812-8.046875-8.050781-18.75-12.484375-30.132813-12.484375 0 0 0 0-.003906 0-7.96875 0-15.605469 2.175781-22.230469 6.242187l-34.003906-34.003906c4.070312-6.625 6.242188-14.261719 6.242188-22.234375 0-7.96875-2.171876-15.605469-6.242188-22.230469l17.441406-17.4375 170.355469 170.355469zm295.015625-295.015625-17.4375 17.4375-170.359375-170.359375 17.4375-17.4375c6.625 4.066406 14.265625 6.242188 22.234375 6.242188 7.972656 0 15.609375-2.175782 22.234375-6.242188l34.011719 34.011719c-10.027344 16.40625-7.949219 38.175781 6.230468 52.355469 8.050782 8.050781 18.75 12.484374 30.136719 12.484374 7.96875 0 15.605469-2.171874 22.230469-6.238281l33.28125 33.277344c-4.070312 6.625-6.242188 14.261719-6.242188 22.234375 0 7.96875 2.175782 15.605469 6.242188 22.234375zm0 0"/><path d="m241.644531 224.667969c-.03125-.011719-.058593-.019531-.085937-.03125l-.054688-.023438c-.054687-.019531-.109375-.035156-.164062-.054687-.246094-.089844-.492188-.175782-.742188-.25-.132812-.035156-.261718-.0625-.394531-.09375-.179687-.042969-.359375-.089844-.542969-.125-.175781-.03125-.355468-.054688-.535156-.074219-.136719-.019531-.273438-.039063-.410156-.050781-.199219-.019532-.398438-.023438-.597656-.03125-.121094-.003906-.242188-.007813-.363282-.007813-.195312 0-.390625.015625-.582031.027344-.132813.007813-.261719.015625-.394531.027344-.171875.019531-.34375.046875-.515625.078125-.15625.023437-.308594.046875-.457031.078125-.144532.027343-.289063.066406-.433594.105469-.171875.042968-.347656.085937-.519532.144531-.121093.035156-.238281.082031-.355468.121093-.1875.066407-.378906.136719-.5625.214844-.105469.046875-.210938.097656-.316406.144532-.183594.089843-.371094.175781-.550782.273437-.113281.0625-.222656.132813-.332031.199219-.164063.097656-.328125.191406-.484375.296875-.144531.097656-.28125.203125-.417969.308593-.117187.089844-.234375.171876-.351562.269532-.183594.152344-.359375.316406-.535157.484375-.054687.050781-.113281.097656-.167968.152343l-.054688.050782c-.011718.015625-.027344.03125-.042968.042968l-34.621094 34.621094c-2.3125-3.34375-5.472656-6.25-9.328125-8.472656-13.78125-7.957031-33.171875-5.59375-44.144531 5.378906-5.847657 5.847656-8.628907 13.539063-7.632813 21.105469 1.023437 7.789063 5.941406 14.761719 13.492187 19.121094 5.496094 3.171875 11.882813 4.703125 18.273438 4.703125 9.632812 0 19.273438-3.484375 25.875-10.082032l47.695312-47.695312 78.074219 30.671875-23.921875 23.917969c-2.3125-3.34375-5.472656-6.25-9.328125-8.472656-13.777343-7.957032-33.171875-5.59375-44.144531 5.378906-5.847656 5.847656-8.628906 13.539062-7.632812 21.105468 1.023437 7.792969 5.941406 14.761719 13.492187 19.121094 5.496094 3.171875 11.882813 4.703125 18.273437 4.703125 9.628907 0 19.265626-3.480469 25.863282-10.070312.003906-.003907.007812-.007813.011718-.011719l52.324219-52.328125 36.96875-36.96875c2.386719-2.382813 3.40625-5.808594 2.71875-9.109375s-2.996093-6.035156-6.132812-7.269531l-98.382813-38.648438c-5.136718-2.019531-10.945312.511719-12.964844 5.652344-2.019531 5.140625.511719 10.941406 5.652344 12.960937l84.171875 33.066407-21.542969 21.542969zm-83.199219 56.710937c-2.121093-1.226562-3.457031-2.835937-3.664062-4.410156-.230469-1.757812.933594-3.339844 1.949219-4.355469 2.777343-2.777343 7.238281-4.261719 11.664062-4.261719 2.96875 0 5.921875.667969 8.335938 2.058594 2.121093 1.226563 3.460937 2.835938 3.667969 4.414063.230468 1.753906-.933594 3.335937-1.949219 4.351562-4.640625 4.644531-13.988281 5.671875-20.003907 2.203125zm98.382813 38.648438c-2.121094-1.226563-3.457031-2.832032-3.664063-4.410156-.230468-1.757813.929688-3.339844 1.945313-4.355469 2.78125-2.777344 7.242187-4.261719 11.667969-4.261719 2.96875 0 5.921875.667969 8.335937 2.0625 2.121094 1.226562 3.457031 2.832031 3.667969 4.410156.230469 1.757813-.933594 3.339844-1.949219 4.355469-4.644531 4.644531-13.992187 5.667969-20.003906 2.199219zm0 0"/><path d="m191.394531 370.746094c-3.90625-3.90625-10.234375-3.90625-14.140625 0-3.90625 3.902344-3.90625 10.234375 0 14.140625l.1875.191406c1.953125 1.953125 4.511719 2.929687 7.074219 2.929687 2.558594 0 5.117187-.980468 7.070313-2.929687 3.902343-3.90625 3.902343-10.238281 0-14.144531zm0 0"/><path d="m197.761719 391.25c-3.90625 3.90625-3.90625 10.238281 0 14.144531l21.941406 21.945313c1.953125 1.949218 4.515625 2.925781 7.074219 2.925781s5.117187-.976563 7.070312-2.925781c3.90625-3.90625 3.90625-10.238282 0-14.144532l-21.945312-21.945312c-3.90625-3.902344-10.238282-3.902344-14.140625 0zm0 0"/></svg>